<?xml version="1.0" encoding="UTF-8"?>
<svg version="1.1" xmlns="http://www.w3.org/2000/svg" width="1472" height="832">
<path d="M0 0 C485.76 0 971.52 0 1472 0 C1472 274.56 1472 549.12 1472 832 C986.24 832 500.48 832 0 832 C0 557.44 0 282.88 0 0 Z " fill="#F4F6DF" transform="translate(0,0)"/>
<path d="M0 0 C0.66 0.33 1.32 0.66 2 1 C2.20446874 2.87429681 2.40614403 4.7489403 2.59375 6.625 C3.45806536 11.67792056 5.84223266 16.41691405 7.9296875 21.07421875 C9.97063451 26.17658627 10.28096186 30.93952304 10.3125 36.375 C10.31797852 37.0777002 10.32345703 37.78040039 10.32910156 38.50439453 C10.27724806 42.20119161 10.10023903 43.84964145 8 47 C7.60986284 48.9896995 7.26797351 50.99019869 7 53 C7.99 53 8.98 53 10 53 C10.495 52.01 10.495 52.01 11 51 C11.99 51 12.98 51 14 51 C14.23976563 50.33871094 14.47953125 49.67742187 14.7265625 48.99609375 C16.34543722 45.18726886 18.33218907 41.65744668 20.375 38.0625 C20.76171875 37.37220703 21.1484375 36.68191406 21.546875 35.97070312 C23.8684902 31.8611326 26.20135394 27.80496773 29 24 C29.66 24 30.32 24 31 24 C31 27.63 31 31.26 31 35 C31.66 35 32.32 35 33 35 C33.8229485 38.4559303 34.63137668 41.91510982 35.4375 45.375 C35.66759766 46.34050781 35.89769531 47.30601562 36.13476562 48.30078125 C38.4387416 58.2512862 39.21895677 67.43860185 38.5625 77.625 C38.51029297 78.53378906 38.45808594 79.44257813 38.40429688 80.37890625 C38.27649171 82.58644999 38.14165221 84.79330914 38 87 C37.34 87 36.68 87 36 87 C35.34 89.97 34.68 92.94 34 96 C34.33 95.67 34.66 95.34 35 95 C35.66 95 36.32 95 37 95 C37.495 93.515 37.495 93.515 38 92 C40.0625 91.3125 40.0625 91.3125 42 91 C42 90.34 42 89.68 42 89 C42.99 89 43.98 89 45 89 C45 88.34 45 87.68 45 87 C45.78375 86.95875 46.5675 86.9175 47.375 86.875 C58.32954929 84.23079845 66.15279503 76.22059246 72 67 C72.33 67 72.66 67 73 67 C73.27735484 79.64411785 70.52623256 89.96086021 64.5859375 100.9140625 C62.68413978 104.61460486 61.73327714 107.92623809 61 112 C67.84529562 111.09971169 72.59114836 109.45454081 77 104 C79.09422573 100.75249832 81.04219587 97.42248966 82.89257812 94.03051758 C83.85163623 92.30863083 84.91834496 90.64763734 86 89 C86.99 89 87.98 89 89 89 C92.30565203 112.21889988 90.06415876 137.50134105 76 157 C65.96056799 168.88748666 53.83823695 174.21897129 39 178 C38.01 178 37.02 178 36 178 C36 176.68 36 175.36 36 174 C35.01 174 34.02 174 33 174 C32.67 173.01 32.34 172.02 32 171 C30.79731203 174.60806391 31.01232725 177.38291674 31.125 181.1875 C31.2685257 193.00489622 28.65354247 203.94770505 25.4375 215.25 C18.08735207 241.14689425 20.22334702 261.38255055 33 285 C33.66 285.99 34.32 286.98 35 288 C35 288.99 35 289.98 35 291 C11.86403727 293.02968112 11.86403727 293.02968112 6.00048828 289.94970703 C2.53925144 286.68645718 1.28184792 282.45442151 0 278 C-0.4228125 276.75605469 -0.845625 275.51210938 -1.28125 274.23046875 C-9.03548429 249.63173227 -3.81411959 226.92382872 5.08251953 203.40161133 C10.7821139 188.28083157 9.23464407 171.61300529 3 157 C2.34237239 155.42451069 1.6848246 153.84898806 1.02734375 152.2734375 C-0.01126503 149.80030373 -1.05508272 147.32980987 -2.11157227 144.86425781 C-7.82612655 131.50343044 -10.18022729 120.28086658 -10.1875 105.75 C-10.19974609 104.47769531 -10.21199219 103.20539063 -10.22460938 101.89453125 C-10.23577642 94.68061739 -9.80669523 87.9974893 -8 81 C-8.66 81 -9.32 81 -10 81 C-11.32 81 -12.64 81 -14 81 C-15.33762635 75.91701988 -16.24813848 71.26303067 -17 66 C-17 70.95 -17 75.9 -17 81 C-24.45039213 73.54960787 -28.0002998 67.78873298 -28.3125 57.1875 C-28.2385182 52.2307194 -27.3405946 48.1947084 -25.734375 43.53515625 C-24.45387338 39.11470121 -24.25238938 34.57782124 -24 30 C-21.29828511 31.35085744 -21.29538364 32.55532476 -20.3125 35.375 C-18.36378661 40.47219434 -15.74943453 44.77190993 -12.7421875 49.30859375 C-10.64396293 52.55002139 -8.82698919 55.89840298 -7.04296875 59.3203125 C-6.09814505 61.16923978 -6.09814505 61.16923978 -4 62 C-4.2697736 56.5146034 -4.98140332 52.73825279 -7.5625 47.875 C-12.01669467 38.56404495 -11.0460338 29.097061 -7.6875 19.5625 C-6.81045143 17.36740104 -5.9165631 15.17889552 -5 13 C-4.43012011 11.48191661 -3.86618626 9.96156424 -3.3125 8.4375 C-2.23426301 5.61354597 -1.13768422 2.80045345 0 0 Z " fill="#EFF4DA" transform="translate(727,193)"/>
<path d="M0 0 C1.24978179 3.74934536 0.5960006 6.10586093 0 10 C-1.31649381 33.46903396 5.63879585 52.12057149 18.09277344 71.71972656 C30.94225595 91.96271335 36.05888604 108.20696932 30.9921875 131.8515625 C29.95249811 136.35832422 28.70307476 140.80232887 27.4375 145.25 C20.08735207 171.14689425 22.22334702 191.38255055 35 215 C35.66 215.99 36.32 216.98 37 218 C37 218.99 37 219.98 37 221 C13.86403727 223.02968112 13.86403727 223.02968112 8.00048828 219.94970703 C4.53925144 216.68645718 3.28184792 212.45442151 2 208 C1.5771875 206.75605469 1.154375 205.51210938 0.71875 204.23046875 C-7.03548429 179.63173227 -1.81411959 156.92382872 7.08251953 133.40161133 C12.7821139 118.28083157 11.23464407 101.61300529 5 87 C4.34237239 85.42451069 3.6848246 83.84898806 3.02734375 82.2734375 C1.98873497 79.80030373 0.94491728 77.32980987 -0.11157227 74.86425781 C-5.77691552 61.61848754 -8.20319213 50.34427754 -8.3125 35.9375 C-8.34150391 34.69033203 -8.37050781 33.44316406 -8.40039062 32.15820312 C-8.48034038 20.33178973 -5.67257058 10.33218213 0 0 Z " fill="#15200C" transform="translate(725,263)"/>
<path d="M0 0 C5.3019743 0.06518821 8.19366694 0.4725028 12 4.25 C13.94950976 6.5523622 15.58103523 8.93858821 17.23828125 11.4609375 C19.63410527 15.00868422 22.24074415 18.30453449 24.9375 21.625 C26.00828255 22.95404851 27.07858418 24.28348462 28.1484375 25.61328125 C28.68694336 26.28182129 29.22544922 26.95036133 29.78027344 27.63916016 C32.22494776 30.68340096 34.64745392 33.74472703 37.0625 36.8125 C38.27486328 38.34970703 38.27486328 38.34970703 39.51171875 39.91796875 C43.54477595 45.09323933 47.44854696 50.36874946 51.375 55.625 C51.38530746 54.9507045 51.39561493 54.276409 51.40623474 53.5816803 C51.51405769 46.59056418 51.62867443 39.59958333 51.74731445 32.60864258 C51.79074124 29.99636656 51.83241038 27.38406072 51.87231445 24.77172852 C51.92983007 21.02611281 51.99357764 17.28064831 52.05859375 13.53515625 C52.07530624 12.35913345 52.09201874 11.18311066 52.10923767 9.97145081 C52.12918289 8.89040573 52.14912811 7.80936066 52.16967773 6.69555664 C52.18522202 5.73847305 52.2007663 4.78138947 52.21678162 3.79530334 C52.375 1.625 52.375 1.625 53.375 0.625 C55.53980797 0.5260706 57.70793785 0.495289 59.875 0.5 C61.0609375 0.49742187 62.246875 0.49484375 63.46875 0.4921875 C66.375 0.625 66.375 0.625 67.375 1.625 C67.48069379 4.17013004 67.52178172 6.68826326 67.52026367 9.23413086 C67.52362228 10.03085709 67.5269809 10.82758331 67.53044128 11.64845276 C67.53997998 14.29559873 67.54189585 16.94268164 67.54296875 19.58984375 C67.54617929 21.42208381 67.54954321 23.2543236 67.55305481 25.08656311 C67.55905338 28.93263341 67.56089396 32.77868121 67.56030273 36.62475586 C67.56020107 41.56260724 67.57385467 46.50031498 67.59107494 51.43813229 C67.60217204 55.22384814 67.60422265 59.00952902 67.60369301 62.79525948 C67.60487654 64.61619118 67.60931905 66.43712369 67.61702538 68.25803947 C67.62677928 70.80095467 67.6239656 73.34355477 67.61791992 75.88647461 C67.62353943 76.64447357 67.62915894 77.40247253 67.63494873 78.18344116 C67.60331557 83.39668443 67.60331557 83.39668443 65.375 85.625 C60.43529485 86.46785878 54.79733421 87.11639793 50.3828125 84.3984375 C48.48770485 82.25819155 46.9604298 80.00646149 45.375 77.625 C43.94100627 75.68725644 42.483464 73.76837845 41.02612305 71.84814453 C39.430771 69.7411128 37.85273905 67.62198107 36.27734375 65.5 C34.07018975 62.53916637 31.82002731 59.62384028 29.5 56.75 C25.63623247 51.96122032 21.80598699 47.14728834 18 42.3125 C17.07018311 41.14581787 17.07018311 41.14581787 16.12158203 39.95556641 C15.53747559 39.21097168 14.95336914 38.46637695 14.3515625 37.69921875 C13.82643066 37.03494873 13.30129883 36.37067871 12.76025391 35.6862793 C11.2399333 33.42401865 10.30173176 31.18143432 9.375 28.625 C8.715 28.625 8.055 28.625 7.375 28.625 C7.37722061 29.31182358 7.37944122 29.99864716 7.38172913 30.70628357 C7.40377895 37.82705162 7.41890533 44.94781004 7.42993164 52.06860352 C7.43497383 54.72941481 7.44180736 57.39022332 7.45043945 60.05102539 C7.46251009 63.86605516 7.46822929 67.68104844 7.47265625 71.49609375 C7.47781754 72.69399033 7.48297882 73.8918869 7.48829651 75.12608337 C7.48840981 76.77768211 7.48840981 76.77768211 7.48852539 78.46264648 C7.490746 79.43749496 7.49296661 80.41234344 7.49525452 81.41673279 C7.375 83.625 7.375 83.625 6.375 84.625 C4.02186445 84.69771741 1.66666332 84.70870868 -0.6875 84.6875 C-2.62302734 84.67396484 -2.62302734 84.67396484 -4.59765625 84.66015625 C-5.59667969 84.64855469 -6.59570312 84.63695312 -7.625 84.625 C-9.14536765 81.58426471 -8.7723129 78.42180537 -8.77026367 75.0859375 C-8.77362228 74.30857239 -8.7769809 73.53120728 -8.78044128 72.73028564 C-8.7899621 70.15350764 -8.79189484 67.57679451 -8.79296875 65 C-8.79618011 63.21402967 -8.79954408 61.42805961 -8.80305481 59.64208984 C-8.8090486 55.89615265 -8.81089441 52.15023853 -8.81030273 48.40429688 C-8.810201 43.59538807 -8.82386398 38.78662654 -8.84107494 33.97775269 C-8.85217125 30.28897415 -8.85422269 26.60023151 -8.85369301 22.91143799 C-8.8548763 21.13795462 -8.85931747 19.36447043 -8.86702538 17.59100342 C-8.87677936 15.11525016 -8.87396579 12.63982053 -8.86791992 10.1640625 C-8.87353943 9.42633606 -8.87915894 8.68860962 -8.88494873 7.92852783 C-8.84101873 0.88010876 -6.71796251 0.27332182 0 0 Z " fill="#326E19" transform="translate(521.625,399.375)"/>
<path d="M0 0 C5.15810838 4.22412991 8.59507152 10.16021456 10.6875 16.4375 C10.8071943 18.62261688 10.86277453 20.81164147 10.875 23 C10.88917969 24.15628906 10.90335938 25.31257813 10.91796875 26.50390625 C10.6875 29.4375 10.6875 29.4375 8.6875 31.4375 C6.73861694 31.67800903 6.73861694 31.67800903 4.32958984 31.66455078 C3.42880707 31.66439972 2.52802429 31.66424866 1.59994507 31.66409302 C0.62594757 31.65377045 -0.34804993 31.64344788 -1.3515625 31.6328125 C-2.34755463 31.6299826 -3.34354675 31.62715271 -4.36972046 31.62423706 C-7.55910118 31.6130184 -10.74820378 31.58791081 -13.9375 31.5625 C-16.09635012 31.55247238 -18.25520463 31.54334615 -20.4140625 31.53515625 C-25.71363699 31.51307361 -31.01304863 31.47957958 -36.3125 31.4375 C-34.7390802 36.4223167 -33.15023586 41.4291507 -28.6953125 44.58203125 C-25.19389448 45.83909772 -21.73997435 45.8618832 -18.0625 45.875 C-16.9173291 45.88188843 -16.9173291 45.88188843 -15.74902344 45.88891602 C-10.39980596 45.78296256 -7.08415566 44.85630087 -2.8125 41.5 C-1.3125 40.4375 -1.3125 40.4375 1.4375 40.375 C4.22449489 41.69108092 5.84555913 42.95796422 7.6875 45.4375 C7.78307469 48.40031554 6.58869472 49.56180342 4.75 51.875 C-4.67617618 59.76220864 -14.43156448 61.16786245 -26.31201172 60.62548828 C-33.84204826 59.91788172 -41.99072415 56.31157111 -46.93359375 50.546875 C-53.92028371 41.49936283 -55.16422259 32.74648328 -54.3125 21.4375 C-52.71966103 12.29892389 -48.59997687 5.54505846 -41.0625 0.125 C-28.6475847 -7.49418715 -12.38614915 -8.31237766 0 0 Z " fill="#18220E" transform="translate(938.3125,425.5625)"/>
<path d="M0 0 C2.4377963 -0.05397335 4.87439685 -0.09365616 7.3125 -0.125 C8.00279297 -0.14175781 8.69308594 -0.15851563 9.40429688 -0.17578125 C13.17135396 -0.21217794 14.78431704 -0.14378864 18 2 C18.38526917 3.80134583 18.38526917 3.80134583 18.40063477 6.00317383 C18.41397354 6.82775589 18.42731232 7.65233795 18.4410553 8.50190735 C18.44117111 9.39459824 18.44128693 10.28728912 18.44140625 11.20703125 C18.45461411 12.12457687 18.46782196 13.0421225 18.48143005 13.98747253 C18.52243004 16.92917868 18.54401543 19.8705723 18.5625 22.8125 C18.58630678 25.74361924 18.61450048 28.6744447 18.65428162 31.60539246 C18.67857559 33.43057553 18.69348538 35.25591362 18.69789124 37.08125305 C18.75117907 41.44424384 18.82089401 45.08701332 21 49 C24.36889013 50.62205821 28.34272478 50.25222588 32 50 C36.18339096 48.39100348 38.83482912 46.94667021 41 43 C41.45318856 39.90625498 41.44099053 36.833479 41.44140625 33.7109375 C41.45461411 32.8113028 41.46782196 31.91166809 41.48143005 30.98477173 C41.52229687 28.11481596 41.54399666 25.24518086 41.5625 22.375 C41.58626087 19.49777472 41.61431525 16.6208526 41.65428162 13.74380493 C41.67870228 11.95434139 41.69350899 10.16471635 41.69789124 8.37509155 C41.77545261 2.22454739 41.77545261 2.22454739 44 0 C46.54535141 -0.19849071 48.95716759 -0.27851775 51.5 -0.25 C52.18964844 -0.25773437 52.87929688 -0.26546875 53.58984375 -0.2734375 C58.74666707 -0.25333293 58.74666707 -0.25333293 61 2 C61.25396729 4.46691895 61.25396729 4.46691895 61.25878906 7.61132812 C61.26509338 8.78594604 61.27139771 9.96056396 61.27789307 11.17077637 C61.2738446 12.44473267 61.26979614 13.71868896 61.265625 15.03125 C61.26849518 16.98424011 61.26849518 16.98424011 61.27142334 18.97668457 C61.27437391 21.73401628 61.27007924 24.49121849 61.26074219 27.24853516 C61.24934753 30.78627073 61.25590738 34.32370287 61.26788712 37.86142731 C61.27684394 41.23055934 61.2705764 44.59960934 61.265625 47.96875 C61.26967346 49.2427063 61.27372192 50.5166626 61.27789307 51.82922363 C61.27158875 53.00384155 61.26528442 54.17845947 61.25878906 55.38867188 C61.25719788 56.4263269 61.25560669 57.46398193 61.25396729 58.53308105 C61 61 61 61 59 63 C56.03125 63.265625 56.03125 63.265625 52.5 63.25 C51.3346875 63.25515625 50.169375 63.2603125 48.96875 63.265625 C46 63 46 63 44 61 C43.59952556 58.67724823 43.2602896 56.34260643 43 54 C42.525625 54.721875 42.05125 55.44375 41.5625 56.1875 C37.12925408 61.05325771 32.9782867 63.62931196 26.359375 64.453125 C18.15001988 64.68207116 11.6651113 64.28035986 5.484375 58.609375 C-0.44041523 52.13977647 -0.27897475 45.17262889 -0.1953125 36.9140625 C-0.1924826 35.85714203 -0.18965271 34.80022156 -0.18673706 33.71127319 C-0.1755785 30.34906499 -0.15048159 26.98712714 -0.125 23.625 C-0.11496462 21.33984761 -0.10583975 19.05469102 -0.09765625 16.76953125 C-0.07565332 11.17959589 -0.04221873 5.58981727 0 0 Z " fill="#192410" transform="translate(767,422)"/>
<path d="M0 0 C0.69416016 -0.01224609 1.38832031 -0.02449219 2.10351562 -0.03710938 C3.92470901 -0.04239842 5.7453692 0.06580793 7.5625 0.1875 C10.66091404 3.28591404 9.86087374 7.01710367 9.87109375 11.17578125 C9.89625959 13.01497705 9.92165753 14.85416968 9.94726562 16.69335938 C9.97598617 19.59658957 9.99999848 22.49976464 10.01879883 25.40307617 C10.04048215 28.20260701 10.07993146 31.00147892 10.12109375 33.80078125 C10.12120956 34.66552567 10.12132538 35.53027008 10.1214447 36.42121887 C10.20646446 41.60967087 10.70841408 45.33341408 14.5625 49.1875 C16.47490484 49.34002309 18.39422799 49.40942773 20.3125 49.4375 C21.35921875 49.46328125 22.4059375 49.4890625 23.484375 49.515625 C26.99821456 49.14105327 28.78254695 48.34536565 31.5625 46.1875 C33.26689419 43.37943729 33.82088598 41.23465713 33.88134766 37.96972656 C33.90121735 37.14917786 33.92108704 36.32862915 33.94155884 35.48321533 C33.95888565 34.16894562 33.95888565 34.16894562 33.9765625 32.828125 C33.99592865 31.92374695 34.0152948 31.0193689 34.0352478 30.08758545 C34.09493831 27.20431901 34.14138686 24.32101242 34.1875 21.4375 C34.22568947 19.48045152 34.26474177 17.52341967 34.3046875 15.56640625 C34.40063125 10.77357289 34.48470127 5.98066085 34.5625 1.1875 C37.54933407 -0.30591703 40.30649774 0.05574822 43.625 0.0625 C44.89472656 0.05992187 46.16445313 0.05734375 47.47265625 0.0546875 C50.5625 0.1875 50.5625 0.1875 51.5625 1.1875 C51.65641296 3.08993762 51.67993658 4.99588459 51.67602539 6.90063477 C51.67594986 8.1218251 51.67587433 9.34301544 51.67579651 10.60121155 C51.67068911 11.94377686 51.66547311 13.28634175 51.66015625 14.62890625 C51.65829199 15.99511158 51.65686813 17.36131757 51.65586853 18.7275238 C51.65204394 22.32951695 51.64221417 25.93147 51.63116455 29.53344727 C51.62094916 33.20653745 51.61637064 36.87963409 51.61132812 40.55273438 C51.60059184 47.76434123 51.58351614 54.975915 51.5625 62.1875 C48.83707733 63.55021133 46.60162726 63.35673601 43.5625 63.375 C42.49 63.38917969 41.4175 63.40335937 40.3125 63.41796875 C37.5625 63.1875 37.5625 63.1875 35.5625 61.1875 C35.16202556 58.86474823 34.8227896 56.53010643 34.5625 54.1875 C34.0675 54.93 33.5725 55.6725 33.0625 56.4375 C28.327471 61.6460319 22.23729876 63.93935144 15.28125 64.30859375 C8.76123578 64.47552182 3.18284893 64.25940381 -2.125 60.0625 C-7.868106 52.92242228 -9.02122164 47.01214492 -8.86328125 37.94140625 C-8.85999313 36.88968735 -8.85670502 35.83796844 -8.85331726 34.75437927 C-8.84294496 32.54655708 -8.82307831 30.33876107 -8.79418945 28.13110352 C-8.74982147 24.73634003 -8.73270485 21.34228419 -8.72070312 17.94726562 C-8.70729046 15.79946885 -8.69237066 13.65168084 -8.67578125 11.50390625 C-8.66839432 10.48422256 -8.66100739 9.46453888 -8.65339661 8.41395569 C-8.64056137 7.47885666 -8.62772614 6.54375763 -8.61450195 5.58032227 C-8.60465775 4.75395767 -8.59481354 3.92759308 -8.58467102 3.07618713 C-8.23262608 -1.44170464 -3.51606388 0.0032466 0 0 Z " fill="#346E1A" transform="translate(609.4375,421.8125)"/>
<path d="M0 0 C0.99 0 1.98 0 3 0 C6.30565203 23.21889988 4.06415876 48.50134105 -10 68 C-20.03943201 79.88748666 -32.16176305 85.21897129 -47 89 C-47.99 89 -48.98 89 -50 89 C-48.53005697 77.91019311 -37.71558767 69.48068783 -30.0625 62.1875 C-22.09279014 54.4725674 -15.16951659 46.8997932 -10 37 C-10.57588867 37.72920654 -11.15177734 38.45841309 -11.74511719 39.2097168 C-19.32822941 48.59336659 -27.91705428 56.9895383 -36.53515625 65.40820312 C-41.22114599 70.03655045 -45.32386152 74.53809506 -49 80 C-49.33 80 -49.66 80 -50 80 C-50.66899551 64.48302078 -48.97102999 51.63261966 -39 39 C-34.22798777 33.86675975 -28.56444771 29.91214102 -22.875 25.875 C-22.26430664 25.44074707 -21.65361328 25.00649414 -21.02441406 24.55908203 C-16.24991265 21.16858824 -16.24991265 21.16858824 -13.86328125 19.55859375 C-10.76373046 17.25379957 -8.62547304 14.62454559 -6.69140625 11.30078125 C-6.28704346 10.61910889 -5.88268066 9.93743652 -5.46606445 9.23510742 C-4.66327847 7.84211821 -3.87622899 6.43992601 -3.10620117 5.02856445 C-2.14760576 3.30729878 -1.08123372 1.64699555 0 0 Z " fill="#578E0A" transform="translate(813,282)"/>
<path d="M0 0 C0.66 0 1.32 0 2 0 C3.36363208 1.97946592 4.69418644 3.9819245 6 6 C6.5775 6.5775 7.155 7.155 7.75 7.75 C9 9 9 9 9 11 C9.80606689 11.4029126 9.80606689 11.4029126 10.62841797 11.81396484 C11.41104004 12.20535645 12.19366211 12.59674805 13 13 C13.91539551 13.45713379 14.83079102 13.91426758 15.77392578 14.38525391 C18.61682897 15.81173912 21.45415878 17.24864365 24.28808594 18.69287109 C25.49982528 19.30775956 26.71366192 19.91853461 27.9296875 20.52490234 C43.90207422 28.49801788 54.58729508 37.46823769 61.25 54.125 C62.39927355 60.06291332 62.15050238 65.9715435 62 72 C61.12988281 70.90751953 61.12988281 70.90751953 60.2421875 69.79296875 C53.63531851 61.56315808 46.98235629 55.27252163 38.32421875 49.33203125 C33.48533807 45.99699744 29.15066204 42.15066204 25 38 C31.03857153 45.26515637 37.65695109 51.1653251 45.0625 57 C51.38443108 62.03035377 56.77959831 67.07854123 61 74 C60.67 74.66 60.34 75.32 60 76 C37.34476256 69.96256369 21.35704524 63.29405977 9 42 C2.77680309 29.56952229 -0.91291801 13.92199973 0 0 Z " fill="#437721" transform="translate(654,281)"/>
<path d="M0 0 C0.66 0 1.32 0 2 0 C2.04898438 1.01578125 2.09796875 2.0315625 2.1484375 3.078125 C2.86626555 17.33618101 2.86626555 17.33618101 6.04296875 31.203125 C9.36100393 44.36692172 7.9441146 59.142771 1.3515625 70.953125 C-1.71367853 75.95923916 -5.02658801 80.67599284 -9 85 C-9.33 85 -9.66 85 -10 85 C-10.28752336 78.35501559 -9.68540151 71.99810755 -8.78613281 65.4140625 C-7.75706555 57.63563235 -7.36839116 49.83315941 -7 42 C-9.31933568 56.15700359 -9.31933568 56.15700359 -10.5625 70.4375 C-10.90208617 77.39194178 -11.79126517 84.14659088 -13 91 C-13.66 91 -14.32 91 -15 91 C-16.10578618 88.33399497 -17.20966252 85.66722466 -18.3125 83 C-18.62123047 82.25621094 -18.92996094 81.51242187 -19.24804688 80.74609375 C-19.87028805 79.2396151 -20.48684684 77.7307777 -21.09790039 76.21972656 C-21.67761411 74.79326995 -22.27200917 73.3726446 -22.88452148 71.95996094 C-24.94458375 66.98828666 -25.5123419 62.61424991 -25.4375 57.25 C-25.42775146 56.45996582 -25.41800293 55.66993164 -25.40795898 54.85595703 C-25.02927497 42.26310893 -19.42442475 32.60473204 -13.18017578 22.01367188 C-12.02664654 20.04546559 -10.8975836 18.0654375 -9.77734375 16.078125 C-9.42510742 15.45405762 -9.07287109 14.82999023 -8.70996094 14.18701172 C-8.37254883 13.58904785 -8.03513672 12.99108398 -7.6875 12.375 C-5.2841445 8.13259888 -2.87271606 3.94480185 0 0 Z " fill="#5C8F0F" transform="translate(756,217)"/>
<path d="M0 0 C0.50548926 9.77279236 0.50548926 9.77279236 -3 14 C-5.51707012 14.55047036 -7.91964321 14.69234175 -10.4921875 14.80859375 C-13.92278323 15.0704305 -16.17164687 16.06844176 -19 18 C-22.49464493 22.41756148 -22.44062526 26.3416171 -22.44140625 31.73046875 C-22.45461411 32.56210037 -22.46782196 33.39373199 -22.48143005 34.25056458 C-22.52220308 36.89624454 -22.54397349 39.54157752 -22.5625 42.1875 C-22.58627262 44.84402996 -22.61432718 47.50023255 -22.65428162 50.15657043 C-22.67867778 51.80691597 -22.69350449 53.45743591 -22.69789124 55.10795593 C-22.77543659 60.77543659 -22.77543659 60.77543659 -25 63 C-28.1875 63.265625 -28.1875 63.265625 -32 63.25 C-33.258125 63.25515625 -34.51625 63.2603125 -35.8125 63.265625 C-39 63 -39 63 -41 61 C-41.24723816 58.48838806 -41.24723816 58.48838806 -41.24291992 55.28100586 C-41.24599655 54.0831395 -41.24907318 52.88527313 -41.25224304 51.65110779 C-41.24505753 50.35214066 -41.23787201 49.05317352 -41.23046875 47.71484375 C-41.229277 46.37488347 -41.22882378 45.03492234 -41.2290802 43.69496155 C-41.22751528 40.88635023 -41.21922423 38.07786637 -41.20581055 35.26928711 C-41.18880427 31.6620208 -41.18499666 28.05489443 -41.18575573 24.44759274 C-41.18548436 21.68102167 -41.18000875 18.91448144 -41.17275429 16.14792061 C-41.16800773 14.16859946 -41.16628961 12.1892718 -41.16459656 10.20994568 C-41.15821671 9.01523148 -41.15183685 7.82051727 -41.14526367 6.58959961 C-41.14145187 5.53195908 -41.13764008 4.47431854 -41.13371277 3.3846283 C-41 1 -41 1 -40 0 C-37.85605481 -0.0991757 -35.70873268 -0.1297015 -33.5625 -0.125 C-31.80099609 -0.12886719 -31.80099609 -0.12886719 -30.00390625 -0.1328125 C-27 0 -27 0 -25 1 C-24.3671875 3.06640625 -24.3671875 3.06640625 -23.875 5.5625 C-23.70742188 6.38878906 -23.53984375 7.21507812 -23.3671875 8.06640625 C-23.24601563 8.70449219 -23.12484375 9.34257812 -23 10 C-22.72027344 9.45730469 -22.44054687 8.91460937 -22.15234375 8.35546875 C-20.02201224 4.55375175 -18.52548581 2.32337588 -14.75 0 C-10.01400606 -1.26293172 -4.55334004 -2.27667002 0 0 Z " fill="#18230E" transform="translate(881,422)"/>
<path d="M0 0 C1.33417969 -0.00386719 1.33417969 -0.00386719 2.6953125 -0.0078125 C4.875 0.125 4.875 0.125 5.875 1.125 C6.36146211 5.98962109 5.91304281 9.63703108 3.33984375 13.7578125 C0.91108194 16.02465685 -1.67065161 15.84226256 -4.875 15.96875 C-8.187382 16.19877653 -10.38569783 17.29879855 -13.125 19.125 C-16.63210318 23.54179726 -16.55163189 27.4644248 -16.53125 32.85546875 C-16.54208618 33.68710037 -16.55292236 34.51873199 -16.56408691 35.37556458 C-16.60988584 38.92146308 -16.6214856 42.46728606 -16.63623047 46.01342773 C-16.65186936 48.60687689 -16.68484268 51.19970477 -16.71875 53.79296875 C-16.71572876 54.59816452 -16.71270752 55.40336029 -16.70959473 56.23295593 C-16.74023438 58.48901367 -16.74023438 58.48901367 -17.125 62.125 C-20.8617843 64.61618953 -22.86951819 64.3315226 -27.3125 64.25 C-28.58480469 64.23195313 -29.85710938 64.21390625 -31.16796875 64.1953125 C-32.14378906 64.17210937 -33.11960937 64.14890625 -34.125 64.125 C-35.46239032 61.45021936 -35.25214329 59.40099145 -35.25439453 56.40600586 C-35.25754669 55.2081395 -35.26069885 54.01027313 -35.26394653 52.77610779 C-35.2619223 51.47714066 -35.25989807 50.17817352 -35.2578125 48.83984375 C-35.25848582 47.49988284 -35.25945608 46.15992204 -35.26071167 44.81996155 C-35.26218681 42.01139157 -35.26003963 39.20285339 -35.25537109 36.39428711 C-35.2496684 32.78702998 -35.25295736 29.17984715 -35.25894356 25.57259274 C-35.26254943 22.80602962 -35.26141056 20.03948425 -35.25881577 17.27292061 C-35.25782067 15.29359514 -35.26086688 13.314269 -35.26394653 11.33494568 C-35.26079437 10.14023148 -35.25764221 8.94551727 -35.25439453 7.71459961 C-35.25359894 6.65695908 -35.25280334 5.59931854 -35.25198364 4.5096283 C-35.125 2.125 -35.125 2.125 -34.125 1.125 C-32.00491884 0.94686646 -29.87708388 0.85710772 -27.75 0.8125 C-26.58726562 0.77511719 -25.42453125 0.73773438 -24.2265625 0.69921875 C-21.125 1.125 -21.125 1.125 -19.25390625 2.94140625 C-17.85753271 5.64235022 -17.46654965 8.11936308 -17.125 11.125 C-16.568125 10.2175 -16.01125 9.31 -15.4375 8.375 C-11.18641933 2.40050824 -7.29163028 -0.0212584 0 0 Z " fill="#376E1D" transform="translate(709.125,420.875)"/>
<path d="M0 0 C3.13601978 2.47964355 5.69171006 4.60235066 8.15625 7.78125 C11.43672569 11.79188613 15.57117396 14.46325281 19.8125 17.375 C30.27781155 24.78849572 37.42658854 30.6978777 42 43 C42.37125 43.8971875 42.7425 44.794375 43.125 45.71875 C44.30744003 50.15290012 44.21436722 54.31039753 44.125 58.875 C44.11597656 59.75414062 44.10695313 60.63328125 44.09765625 61.5390625 C44.07424577 63.6928271 44.0383801 65.84645014 44 68 C43.34 68 42.68 68 42 68 C41.319375 66.453125 41.319375 66.453125 40.625 64.875 C34.34031063 52.39382743 24.80885158 41.80885158 15 32 C18.16386981 36.24624632 21.35468933 40.46772412 24.59472656 44.65625 C28.31439643 49.46827142 32.00656687 54.29876588 35.625 59.1875 C36.27726563 60.06792969 36.92953125 60.94835937 37.6015625 61.85546875 C39 64 39 64 39 66 C29.560799 64.93990512 19.60491318 59.56793411 13.375 52.375 C3.88523587 38.72449695 -0.83038852 16.48914346 0 0 Z " fill="#689A09" transform="translate(664,239)"/>
<path d="M0 0 C0.33 0 0.66 0 1 0 C1.29685392 16.53900419 -3.68510656 31.79468673 -14.19921875 44.69921875 C-19.18305072 49.38825844 -25.23372324 52.63931034 -31.09765625 56.1015625 C-34.58139931 58.38029619 -36.58182489 60.66458605 -39 64 C-39.66 64 -40.32 64 -41 64 C-42.3066568 60.08002959 -42.18421613 56.33513617 -42.1875 52.25 C-42.19974609 51.46367187 -42.21199219 50.67734375 -42.22460938 49.8671875 C-42.24840565 40.31694892 -39.59889358 33.88047902 -33 27 C-28.00017421 22.83779615 -22.46681023 19.68054951 -16.8125 16.5 C-9.34319872 12.21402096 -4.56624746 7.200621 0 0 Z " fill="#33691A" transform="translate(799,260)"/>
<path d="M0 0 C0.66 0.33 1.32 0.66 2 1 C2.20446874 2.87429681 2.40614403 4.7489403 2.59375 6.625 C3.45806536 11.67792056 5.84223266 16.41691405 7.9296875 21.07421875 C10.88651562 28.46628904 12.20098599 38.38899701 9.21777344 45.99414062 C7.21546684 49.95065035 4.79323597 53.5512689 2 57 C1.67 57 1.34 57 1 57 C1 47.43 1 37.86 1 28 C0.34 28 -0.32 28 -1 28 C-1 38.23 -1 48.46 -1 59 C-7.46007209 52.53992791 -10.38614765 43.50290138 -10.6875 34.5 C-10.36322382 26.7092648 -7.99865769 20.12854553 -5 13 C-4.43012011 11.48191661 -3.86618626 9.96156424 -3.3125 8.4375 C-2.23426301 5.61354597 -1.13768422 2.80045345 0 0 Z " fill="#6D9B14" transform="translate(727,193)"/>
<path d="M0 0 C2.70171489 1.35085744 2.70461636 2.55532476 3.6875 5.375 C6.26888142 12.13299856 10.18153098 18.00648412 14.33984375 23.8984375 C17.57435103 28.80199659 17.87073542 33.3359092 17 39 C15.49657987 43.75960811 13.71317536 47.60600877 10 51 C8.66237365 45.91701988 7.75186152 41.26303067 7 36 C7 40.95 7 45.9 7 51 C-0.45039213 43.54960787 -4.0002998 37.78873298 -4.3125 27.1875 C-4.2385182 22.2307194 -3.3405946 18.1947084 -1.734375 13.53515625 C-0.45387338 9.11470121 -0.25238938 4.57782124 0 0 Z " fill="#37681F" transform="translate(703,223)"/>
<path d="M0 0 C1.21749909 4.06696506 0.39443804 5.96346883 -1 10 C-1.286213 11.74755052 -1.5554947 13.49791582 -1.8125 15.25 C-3.27893343 23.54098902 -6.39868216 30.62831535 -13.15234375 35.8828125 C-16.02188952 37.61788669 -18.72274888 38.33117324 -22 39 C-20.6586265 35.1723433 -18.95037939 32.43369025 -16.375 29.3125 C-13.76701265 26.50335008 -13.76701265 26.50335008 -13 23 C-16.60830591 27.53756825 -20.08356205 31.97724575 -23 37 C-23.33 37 -23.66 37 -24 37 C-24.6748383 22.00359339 -24.6748383 22.00359339 -21 17 C-16.98765121 13.48763237 -12.70508535 10.2613877 -7.85546875 8 C-5.60181969 6.78540177 -4.36151415 5.35276737 -2.75 3.375 C-2.22921875 2.74335938 -1.7084375 2.11171875 -1.171875 1.4609375 C-0.78515625 0.97882813 -0.3984375 0.49671875 0 0 Z " fill="#73A310" transform="translate(795,231)"/>
<path d="M0 0 C0.66 0 1.32 0 2 0 C2.29132812 0.556875 2.58265625 1.11375 2.8828125 1.6875 C5.4727876 6.50908887 8.26234756 10.88955089 11.66796875 15.17578125 C15.80918294 20.84718015 15.46372695 26.16002748 15 33 C14.52001824 35.47852653 13.8652856 37.6204646 13 40 C9.71822987 36.71822987 9.24594089 32.41742679 8 28 C8.66 32.29 9.32 36.58 10 41 C6.60405247 39.86801749 6.00019597 39.05653262 3.9375 36.25 C3.43089844 35.57453125 2.92429687 34.8990625 2.40234375 34.203125 C-3.83976799 24.3965762 -0.84741844 11.07696965 0 0 Z " fill="#74A411" transform="translate(681,206)"/>
<path d="M0 0 C3.25890923 2.2736576 4.85724574 4.35528027 6.6875 7.875 C6.6875 9.525 6.6875 11.175 6.6875 12.875 C-3.2125 12.875 -13.1125 12.875 -23.3125 12.875 C-19.89583333 2.625 -19.89583333 2.625 -15.3125 -0.125 C-10.11638584 -1.85703805 -5.17889515 -1.75887005 0 0 Z " fill="#EBEED8" transform="translate(925.3125,433.125)"/>
<path d="M0 0 C1.15429853 1.15429853 2.30757249 2.30963192 3.45703125 3.46875 C4.48062924 4.48457382 5.51979034 5.48496567 6.57421875 6.46875 C15.04626914 14.52608463 22.498604 24.68709368 28 35 C28 35.99 28 36.98 28 38 C28.99 38.495 28.99 38.495 30 39 C26.535 39.495 26.535 39.495 23 40 C23 41.32 23 42.64 23 44 C17.82835786 41.4251278 12.69555147 38.77575227 7.5625 36.125 C6.52544922 35.59519531 5.48839844 35.06539063 4.41992188 34.51953125 C3.41638672 34.00003906 2.41285156 33.48054688 1.37890625 32.9453125 C0.4669751 32.47625488 -0.44495605 32.00719727 -1.38452148 31.52392578 C-4.15630928 29.90892537 -6.54558996 28.0597881 -9 26 C-7.25 25.3125 -7.25 25.3125 -5 25 C-2.875 26.4375 -2.875 26.4375 -1 28 C-0.34 28 0.32 28 1 28 C1.33 28.66 1.66 29.32 2 30 C3.97888961 30.72693904 5.97954558 31.39816251 8 32 C8.33 31.34 8.66 30.68 9 30 C14.44876003 31.72066106 19.71169451 33.84705349 25 36 C18.88921887 27.16605438 12.74715541 18.48151681 5.84765625 10.2421875 C0 3.14587738 0 3.14587738 0 0 Z " fill="#E9F6CF" transform="translate(678,269)"/>
<path d="M0 0 C0.66 0 1.32 0 2 0 C2.8229485 3.4559303 3.63137668 6.91510982 4.4375 10.375 C4.66759766 11.34050781 4.89769531 12.30601562 5.13476562 13.30078125 C7.4387416 23.2512862 8.21895677 32.43860185 7.5625 42.625 C7.51029297 43.53378906 7.45808594 44.44257813 7.40429688 45.37890625 C7.27649171 47.58644999 7.14165221 49.79330914 7 52 C6.34 52 5.68 52 5 52 C4.34 54.97 3.68 57.94 3 61 C3.495 60.505 3.495 60.505 4 60 C4.66 60 5.32 60 6 60 C6.33 59.01 6.66 58.02 7 57 C9.0625 56.3125 9.0625 56.3125 11 56 C11 55.34 11 54.68 11 54 C11.99 54 12.98 54 14 54 C14 53.34 14 52.68 14 52 C14.66 52 15.32 52 16 52 C14.80774186 55.57677442 13.77756483 56.07722716 10.75 58.1875 C6.24654865 61.5489278 3.5643465 65.03882711 1 70 C0.34 68.68 -0.32 67.36 -1 66 C-3.31 67.98 -5.62 69.96 -8 72 C-8.66 71.67 -9.32 71.34 -10 71 C-9.55269531 70.46632813 -9.10539063 69.93265625 -8.64453125 69.3828125 C-0.06164863 58.80518743 4.39292835 48.57256711 4.3125 34.875 C4.31048584 33.94574707 4.30847168 33.01649414 4.30639648 32.05908203 C4.21460877 25.73507343 3.42828264 19.99916848 1.734375 13.88671875 C0.57141786 9.31530745 0.27298523 4.69722863 0 0 Z " fill="#E0F1C9" transform="translate(758,228)"/>
<path d="M0 0 C0.54140625 0.27328125 1.0828125 0.5465625 1.640625 0.828125 C-1.97265625 5.515625 -1.97265625 5.515625 -3.359375 6.828125 C-4.349375 6.828125 -5.339375 6.828125 -6.359375 6.828125 C-6.689375 8.148125 -7.019375 9.468125 -7.359375 10.828125 C-8.2875 10.951875 -8.2875 10.951875 -9.234375 11.078125 C-11.49963635 11.62065508 -11.49963635 11.62065508 -12.421875 13.640625 C-12.73125 14.3625 -13.040625 15.084375 -13.359375 15.828125 C-14.1328125 16.8490625 -14.1328125 16.8490625 -14.921875 17.890625 C-16.54626228 19.86993996 -16.54626228 19.86993996 -17.359375 22.828125 C-16.039375 23.158125 -14.719375 23.488125 -13.359375 23.828125 C-13.029375 23.168125 -12.699375 22.508125 -12.359375 21.828125 C-11.51375 21.725 -10.668125 21.621875 -9.796875 21.515625 C-5.83469125 20.72318825 -3.46512836 19.16605584 -0.19140625 16.88671875 C1.640625 15.828125 1.640625 15.828125 4.640625 15.828125 C4.640625 14.838125 4.640625 13.848125 4.640625 12.828125 C6.59372388 11.42698884 8.59771318 10.09473033 10.640625 8.828125 C11.300625 8.168125 11.960625 7.508125 12.640625 6.828125 C12.640625 10.828125 12.640625 10.828125 10.953125 12.828125 C1.907272 20.65156543 -10.9872423 27.828125 -23.359375 27.828125 C-22.12646805 18.63885854 -14.32904024 11.50749543 -8.109375 5.078125 C-7.34886841 4.27169556 -7.34886841 4.27169556 -6.57299805 3.44897461 C-2.91414986 -0.21228906 -2.91414986 -0.21228906 0 0 Z " fill="#4A7925" transform="translate(786.359375,343.171875)"/>
<path d="M0 0 C0.495 0.99 0.495 0.99 1 2 C-3.84590578 11.75958646 -11.4298536 19.50373727 -19.109375 27.0546875 C-20.61485892 28.53617834 -22.12006207 30.01795454 -23.625 31.5 C-24.37128662 32.23355713 -25.11757324 32.96711426 -25.88647461 33.72290039 C-30.51169757 38.33057424 -34.45998681 42.82412008 -37.87109375 48.41015625 C-38.24363281 48.93480469 -38.61617187 49.45945312 -39 50 C-39.66 50 -40.32 50 -41 50 C-41 45.38 -41 40.76 -41 36 C-40.67 36 -40.34 36 -40 36 C-39.67 38.64 -39.34 41.28 -39 44 C-38.45956055 43.2419104 -38.45956055 43.2419104 -37.90820312 42.46850586 C-31.99578425 34.50572683 -24.92932713 27.8169683 -17.82470703 20.94116211 C-11.08354625 14.4007135 -5.01610416 8.02105564 0 0 Z " fill="#DEF6AB" transform="translate(803,317)"/>
<path d="M0 0 C0.99 0 1.98 0 3 0 C3.81760982 5.74289139 4.19227016 11.32627045 4.1875 17.125 C4.1884668 18.35536987 4.1884668 18.35536987 4.18945312 19.6105957 C4.12730797 26.87239833 3.30633304 33.85015934 2 41 C1.67 41 1.34 41 1 41 C1 30.44 1 19.88 1 9 C-1.61012633 11.61012633 -3.92299804 14.06226462 -6.25 16.875 C-10.58752308 21.84411102 -14.9811575 26.24528937 -21.5 27.875 C-22.7375 27.936875 -22.7375 27.936875 -24 28 C-21.25017159 25.1237427 -18.39821726 22.77854267 -15.1875 20.4375 C-8.8348196 15.43406146 -5.24239908 9.22269957 -1.49609375 2.16796875 C-1.00238281 1.45253906 -0.50867188 0.73710937 0 0 Z " fill="#89AC35" transform="translate(813,282)"/>
<path d="M0 0 C1.27617188 0.02320313 2.55234375 0.04640625 3.8671875 0.0703125 C5.78917969 0.09738281 5.78917969 0.09738281 7.75 0.125 C9.23113281 0.15980469 9.23113281 0.15980469 10.7421875 0.1953125 C10.7421875 0.5253125 10.7421875 0.8553125 10.7421875 1.1953125 C9.95972656 1.24429687 9.17726563 1.29328125 8.37109375 1.34375 C7.35917969 1.41851562 6.34726562 1.49328125 5.3046875 1.5703125 C4.29535156 1.63992188 3.28601563 1.70953125 2.24609375 1.78125 C1.00666016 1.98621094 1.00666016 1.98621094 -0.2578125 2.1953125 C-0.5878125 2.8553125 -0.9178125 3.5153125 -1.2578125 4.1953125 C-1.9178125 4.1953125 -2.5778125 4.1953125 -3.2578125 4.1953125 C-3.09539063 5.18144531 -2.93296875 6.16757812 -2.765625 7.18359375 C-2.18764054 11.24888727 -2.11009415 15.28215022 -2.1328125 19.3828125 C-2.12894531 20.06150391 -2.12507812 20.74019531 -2.12109375 21.43945312 C-2.12861051 25.50226113 -2.35990625 29.48720745 -2.75 33.53125 C-3.44115428 41.36784761 -3.47996504 49.19944672 -3.49804688 57.0612793 C-3.50788723 59.65249168 -3.53907467 62.24295251 -3.5703125 64.83398438 C-3.57683247 66.49478704 -3.58208687 68.15559526 -3.5859375 69.81640625 C-3.5982843 70.58415878 -3.6106311 71.35191132 -3.62335205 72.14292908 C-3.60446093 76.68570459 -2.99521615 79.53866522 -0.2578125 83.1953125 C-2.2378125 83.6903125 -2.2378125 83.6903125 -4.2578125 84.1953125 C-5.77818015 81.15457721 -5.4051254 77.99211787 -5.40307617 74.65625 C-5.40643478 73.87888489 -5.4097934 73.10151978 -5.41325378 72.30059814 C-5.4227746 69.72382014 -5.42470734 67.14710701 -5.42578125 64.5703125 C-5.42899261 62.78434217 -5.43235658 60.99837211 -5.43586731 59.21240234 C-5.4418611 55.46646515 -5.44370691 51.72055103 -5.44311523 47.97460938 C-5.4430135 43.16570057 -5.45667648 38.35693904 -5.47388744 33.54806519 C-5.48498375 29.85928665 -5.48703519 26.17054401 -5.48650551 22.48175049 C-5.4876888 20.70826712 -5.49212997 18.93478293 -5.49983788 17.16131592 C-5.50959186 14.68556266 -5.50677829 12.21013303 -5.50073242 9.734375 C-5.50635193 8.99664856 -5.51197144 8.25892212 -5.51776123 7.49884033 C-5.47306898 0.32812164 -5.47306898 0.32812164 0 0 Z " fill="#386223" transform="translate(518.2578125,399.8046875)"/>
<path d="M0 0 C0.99642211 1.97961738 1.98176978 3.96147142 2.9296875 5.96484375 C3.24164062 6.61582031 3.55359375 7.26679688 3.875 7.9375 C4.18179688 8.58589844 4.48859375 9.23429687 4.8046875 9.90234375 C6.27698834 12.61300398 6.27698834 12.61300398 10 17 C10 11.39 10 5.78 10 0 C12.25473176 3.38209765 12.52740931 5.50705432 13.0625 9.5 C13.51667276 12.83310259 13.93568845 15.80706535 15 19 C13.68 19 12.36 19 11 19 C11 19.99 11 20.98 11 22 C10.01 22 9.02 22 8 22 C8.33 23.98 8.66 25.96 9 28 C8.34 28.33 7.68 28.66 7 29 C6.72027344 28.2265625 6.44054687 27.453125 6.15234375 26.65625 C3.73009001 20.36306344 1.26047624 15.4769877 -3.44921875 10.62109375 C-5 9 -5 9 -7 6 C-4.69 6.33 -2.38 6.66 0 7 C-0.185625 6.401875 -0.37125 5.80375 -0.5625 5.1875 C-1 3 -1 3 0 0 Z " fill="#E7F3CB" transform="translate(699,256)"/>
<path d="M0 0 C0.66 0 1.32 0 2 0 C6.9279385 9.78987782 6.39753237 19.34392401 6 30 C5.34 30 4.68 30 4 30 C3.443125 28.824375 2.88625 27.64875 2.3125 26.4375 C0.8425451 23.45000173 -0.77199605 20.87757631 -2.8125 18.25 C-5 15 -5 15 -4.63671875 12.796875 C-4.42660156 12.20390625 -4.21648438 11.6109375 -4 11 C-2.68 10.67 -1.36 10.34 0 10 C0 6.7 0 3.4 0 0 Z " fill="#5D8633" transform="translate(702,277)"/>
<path d="M0 0 C0.69416016 -0.01224609 1.38832031 -0.02449219 2.10351562 -0.03710938 C3.92470901 -0.04239842 5.7453692 0.06580793 7.5625 0.1875 C9.5625 2.1875 9.5625 2.1875 9.78955078 6.08642578 C9.78923341 7.76858793 9.77789396 9.45077019 9.7578125 11.1328125 C9.7549826 12.0178244 9.75215271 12.9028363 9.74923706 13.81466675 C9.7380224 16.64741412 9.7129157 19.47984784 9.6875 22.3125 C9.67747185 24.23046419 9.66834572 26.14843333 9.66015625 28.06640625 C9.63807889 32.77355876 9.60354045 37.48047616 9.5625 42.1875 C9.2325 42.1875 8.9025 42.1875 8.5625 42.1875 C7.84374064 29.1728215 7.41926186 16.22217078 7.5625 3.1875 C5.93786158 3.13354522 4.31271459 3.09472805 2.6875 3.0625 C1.78257812 3.03929687 0.87765625 3.01609375 -0.0546875 2.9921875 C-2.62556994 2.94425164 -2.62556994 2.94425164 -4.4375 5.1875 C-5.0800235 7.25624034 -5.0800235 7.25624034 -5.4375 9.1875 C-6.0975 9.1875 -6.7575 9.1875 -7.4375 9.1875 C-7.4375 22.3875 -7.4375 35.5875 -7.4375 49.1875 C-7.7675 49.1875 -8.0975 49.1875 -8.4375 49.1875 C-8.4627689 42.36988106 -8.48033244 35.55227411 -8.49243164 28.73461914 C-8.49747333 26.41332549 -8.50430651 24.09203503 -8.51293945 21.77075195 C-8.52501225 18.44221205 -8.53072979 15.11371398 -8.53515625 11.78515625 C-8.54031754 10.74037613 -8.54547882 9.69559601 -8.55079651 8.61915588 C-8.55087204 7.65823532 -8.55094757 6.69731476 -8.55102539 5.70727539 C-8.553246 4.85678116 -8.55546661 4.00628693 -8.55775452 3.13002014 C-8.27398132 -1.45388385 -3.55282555 0.00328054 0 0 Z " fill="#537938" transform="translate(609.4375,421.8125)"/>
<path d="M0 0 C3.1400653 2.48284233 5.72180321 4.64231842 8.1875 7.8125 C11.88704987 12.50431325 17.12914345 15.63902367 22 19 C21.34 19.33 20.68 19.66 20 20 C16.9375 18.75 16.9375 18.75 14 17 C13.67 16.01 13.34 15.02 13 14 C11.05396726 13.40929986 11.05396726 13.40929986 9 13 C8.34 12.34 7.68 11.68 7 11 C6.01 11.66 5.02 12.32 4 13 C4.45228625 15.39711711 4.9116008 17.79252818 5.375 20.1875 C5.50132812 20.86103516 5.62765625 21.53457031 5.7578125 22.22851562 C6.33196821 25.17106362 6.96181498 27.90617395 8.09375 30.6875 C9.0934494 33.2384571 9.2063082 35.08867535 9.125 37.8125 C9.10695313 38.60269531 9.08890625 39.39289063 9.0703125 40.20703125 C9.03550781 41.09455078 9.03550781 41.09455078 9 42 C6.74066407 39.74066407 6.49765564 38.68249431 5.78125 35.6328125 C5.57201904 34.75254395 5.36278809 33.87227539 5.1472168 32.96533203 C4.93363525 32.02802246 4.72005371 31.09071289 4.5 30.125 C4.27932861 29.17351074 4.05865723 28.22202148 3.83129883 27.24169922 C-0.39762825 8.74782148 -0.39762825 8.74782148 0 0 Z " fill="#7DA423" transform="translate(664,239)"/>
<path d="M0 0 C0.66 0 1.32 0 2 0 C2.33 7.26 2.66 14.52 3 22 C1 21 1 21 0.1484375 18.71484375 C-0.10679687 17.79832031 -0.36203125 16.88179687 -0.625 15.9375 C-1.01558594 14.55884766 -1.01558594 14.55884766 -1.4140625 13.15234375 C-1.60742188 12.44207031 -1.80078125 11.73179687 -2 11 C-2.5878125 12.299375 -2.5878125 12.299375 -3.1875 13.625 C-5.10253256 17.19092269 -7.38262226 19.92458116 -10 23 C-11.02304948 24.65261839 -12.02616054 26.31791365 -13 28 C-13.98244845 29.34631825 -14.97676564 30.68441297 -16 32 C-17 29 -17 29 -15.62890625 26.13671875 C-14.95020725 24.98098648 -14.26063333 23.83159758 -13.5625 22.6875 C-12.82255421 21.43771452 -12.08298231 20.18770762 -11.34375 18.9375 C-10.95832031 18.29296875 -10.57289063 17.6484375 -10.17578125 16.984375 C-7.89965526 13.14293977 -5.72432723 9.24337782 -3.52758789 5.35620117 C-1.11010955 1.11010955 -1.11010955 1.11010955 0 0 Z " fill="#7FA527" transform="translate(756,217)"/>
<path d="M0 0 C1.79244141 0.01740234 1.79244141 0.01740234 3.62109375 0.03515625 C5.41740234 0.04869141 5.41740234 0.04869141 7.25 0.0625 C8.17683594 0.07410156 9.10367188 0.08570313 10.05859375 0.09765625 C10.05859375 0.42765625 10.05859375 0.75765625 10.05859375 1.09765625 C8.10546875 1.22786458 6.15234375 1.35807292 4.19921875 1.48828125 C0.96311496 2.40950788 -0.05431906 3.2565183 -1.94140625 6.09765625 C-2.46257124 9.77437877 -2.36161291 13.3925472 -2.25390625 17.09765625 C-2.24423828 18.09539062 -2.23457031 19.093125 -2.22460938 20.12109375 C-2.23444546 25.11415469 -2.23444546 25.11415469 -1.43481445 30.01123047 C-0.7565806 32.87920994 -0.81150931 35.59783807 -0.80859375 38.54296875 C-0.80730469 39.78433594 -0.80601562 41.02570313 -0.8046875 42.3046875 C-0.80855469 43.59761719 -0.81242188 44.89054687 -0.81640625 46.22265625 C-0.81253906 47.52332031 -0.80867187 48.82398438 -0.8046875 50.1640625 C-0.80597656 51.40285156 -0.80726563 52.64164062 -0.80859375 53.91796875 C-0.80972168 55.05508301 -0.81084961 56.19219727 -0.81201172 57.36376953 C-0.94140625 60.09765625 -0.94140625 60.09765625 -1.94140625 62.09765625 C2.34859375 62.09765625 6.63859375 62.09765625 11.05859375 62.09765625 C11.05859375 62.42765625 11.05859375 62.75765625 11.05859375 63.09765625 C6.43859375 63.09765625 1.81859375 63.09765625 -2.94140625 63.09765625 C-4.27879657 60.42287561 -4.06854954 58.3736477 -4.07080078 55.37866211 C-4.07395294 54.18079575 -4.0771051 52.98292938 -4.08035278 51.74876404 C-4.07832855 50.44979691 -4.07630432 49.15082977 -4.07421875 47.8125 C-4.07489207 46.47253909 -4.07586233 45.13257829 -4.07711792 43.7926178 C-4.07859306 40.98404782 -4.07644588 38.17550964 -4.07177734 35.36694336 C-4.06607465 31.75968623 -4.06936361 28.1525034 -4.07534981 24.54524899 C-4.07895568 21.77868587 -4.07781681 19.0121405 -4.07522202 16.24557686 C-4.07422692 14.26625139 -4.07727313 12.28692525 -4.08035278 10.30760193 C-4.07720062 9.11288773 -4.07404846 7.91817352 -4.07080078 6.68725586 C-4.07000519 5.62961533 -4.06920959 4.57197479 -4.06838989 3.48228455 C-3.88001341 -0.05524112 -3.59855079 0.1194738 0 0 Z " fill="#376520" transform="translate(677.94140625,421.90234375)"/>
<path d="M0 0 C1.24546405 2.49092811 0.7767578 3.41080733 0 6 C2.64 5.67 5.28 5.34 8 5 C4.21246275 9.09922984 -0.17706111 12.01909517 -4.77929688 15.11328125 C-8.94746373 17.99997286 -11.9025506 20.97990609 -15 25 C-15.763125 25.94875 -16.52625 26.8975 -17.3125 27.875 C-17.869375 28.57625 -18.42625 29.2775 -19 30 C-19 28.02 -19 26.04 -19 24 C-18.34 24 -17.68 24 -17 24 C-16.731875 23.360625 -16.46375 22.72125 -16.1875 22.0625 C-15 20 -15 20 -12 19 C-10.83333333 17.08333333 -10.83333333 17.08333333 -10 15 C-9.67 14.34 -9.34 13.68 -9 13 C-10.32 12.67 -11.64 12.34 -13 12 C-12.22914063 11.38511719 -11.45828125 10.77023437 -10.6640625 10.13671875 C-9.66117188 9.32847656 -8.65828125 8.52023437 -7.625 7.6875 C-6.62726562 6.88699219 -5.62953125 6.08648437 -4.6015625 5.26171875 C-1.86519247 3.08378314 -1.86519247 3.08378314 0 0 Z " fill="#E9F4CA" transform="translate(788,299)"/>
<path d="M0 0 C3.99254447 3.38498335 7.90107942 6.82735276 11.75 10.375 C15.22409211 13.5323056 18.77175044 16.3208708 22.625 19 C28.86614361 23.4174903 33.7638836 28.64582539 38 35 C38.33 32.36 38.66 29.72 39 27 C39.33 27 39.66 27 40 27 C40.05389087 28.95803507 40.09274217 30.91648909 40.125 32.875 C40.14820313 33.96554687 40.17140625 35.05609375 40.1953125 36.1796875 C40 39 40 39 38 41 C37.6596875 40.443125 37.319375 39.88625 36.96875 39.3125 C31.80581383 31.18362177 25.88987374 25.29933081 18.125 19.625 C2.75377978 8.35017096 2.75377978 8.35017096 0 0 Z " fill="#C6E8B0" transform="translate(677,316)"/>
<path d="M0 0 C4.28559415 4.04706387 7.79564522 8.46559899 11.3125 13.1875 C12.13717773 14.27321289 12.13717773 14.27321289 12.97851562 15.38085938 C13.49736328 16.07373047 14.01621094 16.76660156 14.55078125 17.48046875 C15.02169189 18.10848389 15.49260254 18.73649902 15.9777832 19.38354492 C17 21 17 21 17 23 C10.97229862 22.52412884 6.23321711 19.80277043 1 17 C1 15 1 15 3 13 C3.09884588 10.814879 3.09884588 10.814879 2.75 8.4375 C2.66234375 7.63183594 2.5746875 6.82617188 2.484375 5.99609375 C2.32453125 5.33738281 2.1646875 4.67867188 2 4 C1.34 3.67 0.68 3.34 0 3 C0 2.01 0 1.02 0 0 Z M4 9 C4.33 10.32 4.66 11.64 5 13 C5.33 12.01 5.66 11.02 6 10 C5.34 9.67 4.68 9.34 4 9 Z " fill="#4D782A" transform="translate(686,282)"/>
<path d="M0 0 C0.66 0 1.32 0 2 0 C3.65 3.3 5.3 6.6 7 10 C5.68 10 4.36 10 3 10 C1.1441208 16.95954701 1.19675809 24.34230047 4 31 C4.99 31 5.98 31 7 31 C10.125 37.625 10.125 37.625 9 41 C4.4555899 36.83429074 -0.76024436 31.13931059 -1.1328125 24.70703125 C-1.11048186 16.43352968 -0.630867 8.24633293 0 0 Z " fill="#819F34" transform="translate(681,206)"/>
<path d="M0 0 C1.65 0 3.3 0 5 0 C6.36758786 5.47917458 5.53871442 9.80699333 4.3125 15.1875 C4.15072266 15.99380859 3.98894531 16.80011719 3.82226562 17.63085938 C2.51877119 23.50390733 2.51877119 23.50390733 -0.14453125 26.05078125 C-0.75683594 26.36402344 -1.36914062 26.67726563 -2 27 C-0.33333333 18.66666667 1.33333333 10.33333333 3 2 C2.64808594 2.45890625 2.29617188 2.9178125 1.93359375 3.390625 C-1.64388465 7.83678615 -4.84760038 10.5228848 -10 13 C-10.66 13 -11.32 13 -12 13 C-11.02738378 9.72847271 -10.34232413 8.25454871 -7.5625 6.1875 C-5 5 -5 5 -2 5 C-1.34 3.35 -0.68 1.7 0 0 Z " fill="#E8F4B8" transform="translate(792,230)"/>
<path d="M0 0 C0.33 0 0.66 0 1 0 C1.1278158 7.70397875 0.76889978 15.26730093 0.0625 22.9375 C-0.02451172 23.95134766 -0.11152344 24.96519531 -0.20117188 26.00976562 C-0.56801305 30.12110409 -0.99349269 33.99716948 -2 38 C-1.99181225 40.82067916 -1.87216744 43.62389984 -1.7421875 46.44140625 C-2 49 -2 49 -3.5078125 50.83984375 C-4.00023437 51.22269531 -4.49265625 51.60554688 -5 52 C-5.33 51.67 -5.66 51.34 -6 51 C-5.98796595 47.15980029 -5.61025836 43.3273108 -5.3125 39.5 C-5.22436035 38.34773926 -5.1362207 37.19547852 -5.04541016 36.00830078 C-4.03671832 23.89577123 -2.13130107 11.95948416 0 0 Z " fill="#C3E29B" transform="translate(749,254)"/>
<path d="M0 0 C1.15429853 1.15429853 2.30757249 2.30963192 3.45703125 3.46875 C4.48062924 4.48457382 5.51979034 5.48496567 6.57421875 6.46875 C15.25168953 14.72144948 21.77875533 24.8379669 28 35 C27.34 35.66 26.68 36.32 26 37 C24.515 36.505 24.515 36.505 23 36 C23.66 36 24.32 36 25 36 C18.88921887 27.16605438 12.74715541 18.48151681 5.84765625 10.2421875 C0 3.14587738 0 3.14587738 0 0 Z " fill="#DBF1AF" transform="translate(678,269)"/>
<path d="M0 0 C0.33 0 0.66 0 1 0 C1.19430855 2.6246601 1.38073238 5.24946765 1.5625 7.875 C1.61857422 8.62136719 1.67464844 9.36773437 1.73242188 10.13671875 C2.11328125 15.7734375 2.11328125 15.7734375 1 18 C0.93049459 19.54023996 0.91547643 21.08334988 0.9375 22.625 C0.95103516 23.85089844 0.95103516 23.85089844 0.96484375 25.1015625 C0.97644531 25.72804688 0.98804688 26.35453125 1 27 C1.61875 26.34 2.2375 25.68 2.875 25 C5 23 5 23 7 23 C5.65378455 26.80863968 3.94641263 29.65409851 1.4375 32.8125 C0.81746094 33.60269531 0.19742188 34.39289063 -0.44140625 35.20703125 C-0.95574219 35.79871094 -1.47007812 36.39039063 -2 37 C-2.33 37 -2.66 37 -3 37 C-3.32294317 29.53642445 -2.49901496 22.31977647 -1.51171875 14.94140625 C-0.86639784 9.97095737 -0.40215714 4.99521505 0 0 Z " fill="#4B712B" transform="translate(749,265)"/>
<path d="M0 0 C0.66 0.33 1.32 0.66 2 1 C-0.90101343 7.68112183 -7.3012706 12.18161023 -13.7890625 15.15625 C-19.73907055 17.42692445 -25.59322833 19.23087465 -32 19 C-32 18.01 -32 17.02 -32 16 C-29.69 16.33 -27.38 16.66 -25 17 C-24.67 16.34 -24.34 15.68 -24 15 C-23.154375 14.896875 -22.30875 14.79375 -21.4375 14.6875 C-17.47531625 13.89506325 -15.10575336 12.33793084 -11.83203125 10.05859375 C-10 9 -10 9 -7 9 C-7 8.01 -7 7.02 -7 6 C-5.03277992 4.61876037 -3.03131672 3.28511874 -1 2 C-0.67 1.34 -0.34 0.68 0 0 Z M-30 13 C-29.67 13.99 -29.34 14.98 -29 16 C-29.66 16 -30.32 16 -31 16 C-30.67 15.01 -30.34 14.02 -30 13 Z " fill="#497226" transform="translate(798,350)"/>
<path d="M0 0 C0.33 0 0.66 0 1 0 C1.09916726 5.44428237 1.17160909 10.88803448 1.21972656 16.33300781 C1.23979339 18.18368696 1.26705345 20.03430309 1.30175781 21.88476562 C1.35049433 24.55093977 1.37301787 27.21627287 1.390625 29.8828125 C1.41127014 30.70492218 1.43191528 31.52703186 1.45318604 32.37405396 C1.45524928 37.70320206 0.62636308 40.82108724 -3 45 C-4.485 45.495 -4.485 45.495 -6 46 C-5.40138258 43.64828869 -4.73075648 41.3140622 -4 39 C-3.01 38.505 -3.01 38.505 -2 38 C-1.97494385 37.27522461 -1.9498877 36.55044922 -1.92407227 35.80371094 C-1.80651383 32.45236255 -1.68452697 29.10118854 -1.5625 25.75 C-1.52318359 24.61046875 -1.48386719 23.4709375 -1.44335938 22.296875 C-1.16800232 14.8410532 -0.69021742 7.42894137 0 0 Z " fill="#C1DAAB" transform="translate(643,425)"/>
<path d="M0 0 C0.66 0 1.32 0 2 0 C3.36363208 1.97946592 4.69418644 3.9819245 6 6 C6.5775 6.5775 7.155 7.155 7.75 7.75 C9 9 9 9 9 11 C9.99 11.33 10.98 11.66 12 12 C12 12.33 12 12.66 12 13 C8.80097361 13.08886184 6.07322544 12.91058531 3 12 C3.165 12.680625 3.33 13.36125 3.5 14.0625 C4.07089059 17.4164822 4.06659023 20.60389805 4 24 C-0.04525307 16.5553746 -0.3180382 8.30433068 0 0 Z " fill="#5C8436" transform="translate(654,281)"/>
<path d="M0 0 C1.21749909 4.06696506 0.39443804 5.96346883 -1 10 C-1.286213 11.74755052 -1.5554947 13.49791582 -1.8125 15.25 C-2.80159058 21.11217102 -5.08038954 25.86282281 -8 31 C-8.33 29.68 -8.66 28.36 -9 27 C-8.34 27 -7.68 27 -7 27 C-6.08767571 23.61371526 -5.50163573 20.21003249 -4.9375 16.75 C-4.76089844 15.67234375 -4.58429687 14.5946875 -4.40234375 13.484375 C-4.26957031 12.66453125 -4.13679687 11.8446875 -4 11 C-8.455 11.495 -8.455 11.495 -13 12 C-10 9 -10 9 -8.015625 8.0390625 C-5.64723812 6.81814988 -4.42588434 5.43176714 -2.75 3.375 C-2.22921875 2.74335938 -1.7084375 2.11171875 -1.171875 1.4609375 C-0.78515625 0.97882813 -0.3984375 0.49671875 0 0 Z " fill="#83A22F" transform="translate(795,231)"/>
<path d="M0 0 C0.66 0 1.32 0 2 0 C2.8229485 3.4559303 3.63137668 6.91510982 4.4375 10.375 C4.66759766 11.34050781 4.89769531 12.30601562 5.13476562 13.30078125 C7.23270496 22.3614468 8.32187681 30.84372791 7.5625 40.125 C7.46066406 41.42695313 7.35882812 42.72890625 7.25390625 44.0703125 C7.17011719 45.03710938 7.08632813 46.00390625 7 47 C6.67 47 6.34 47 6 47 C5.98582031 46.06285156 5.97164062 45.12570312 5.95703125 44.16015625 C5.6382908 33.66949546 3.94564867 23.72213964 1.7277832 13.46899414 C1.50695068 12.44281982 1.28611816 11.41664551 1.05859375 10.359375 C0.85548584 9.44639648 0.65237793 8.53341797 0.44311523 7.59277344 C0.00131494 5.00769402 -0.0799691 2.61684852 0 0 Z " fill="#EDF9C0" transform="translate(758,228)"/>
<path d="M0 0 C0.33 0.66 0.66 1.32 1 2 C1.99 1.67 2.98 1.34 4 1 C4 1.66 4 2.32 4 3 C3.34 3 2.68 3 2 3 C2.12375 3.721875 2.2475 4.44375 2.375 5.1875 C2 8 2 8 -0.5625 10.6875 C-3.85608591 13.18716663 -6.99012569 14.11782765 -11 15 C-9.11754581 8.78790116 -4.52119694 4.45371638 0 0 Z " fill="#639017" transform="translate(784,255)"/>
<path d="M0 0 C-1.53844363 3.5897018 -3.71511548 6.03837897 -6.375 8.875 C-8.9655471 11.68593072 -11.40700966 14.38239185 -13.4375 17.625 C-13.953125 18.40875 -14.46875 19.1925 -15 20 C-15.66 20 -16.32 20 -17 20 C-17 15.38 -17 10.76 -17 6 C-16.67 6 -16.34 6 -16 6 C-15.67 8.64 -15.34 11.28 -15 14 C-14.32904297 13.11248047 -14.32904297 13.11248047 -13.64453125 12.20703125 C-4.3050571 0 -4.3050571 0 0 0 Z " fill="#D8F1BF" transform="translate(779,347)"/>
<path d="M0 0 C1.08046093 3.30621046 1.05206892 3.87456124 -0.375 7.3125 C-3.75077666 15.51301681 -3.05617019 25.27115252 -3 34 C-3.99 34 -4.98 34 -6 34 C-6.50133813 21.46654666 -5.87412204 11.37780396 0 0 Z " fill="#6E9239" transform="translate(737,249)"/>
<path d="M0 0 C0.33 0 0.66 0 1 0 C1.16898112 5.35810969 0.56511422 10.19349172 -0.5 15.4375 C-0.64308594 16.16904297 -0.78617188 16.90058594 -0.93359375 17.65429688 C-1.28321296 19.43735486 -1.64077688 21.21885203 -2 23 C-2.33 23 -2.66 23 -3 23 C-2.98839844 22.38511719 -2.97679687 21.77023437 -2.96484375 21.13671875 C-2.95582031 20.32847656 -2.94679688 19.52023437 -2.9375 18.6875 C-2.92589844 17.88699219 -2.91429687 17.08648437 -2.90234375 16.26171875 C-2.90342145 13.83138666 -2.90342145 13.83138666 -4 11 C-5.95894361 11.11306697 -5.95894361 11.11306697 -8 12 C-9.29660434 14.49034386 -9.29660434 14.49034386 -10 17 C-11.32 16.34 -12.64 15.68 -14 15 C-13.49210938 14.5875 -12.98421875 14.175 -12.4609375 13.75 C-8.0177613 10.0223915 -4.44506395 6.26580027 -1.12890625 1.50390625 C-0.75636719 1.00761719 -0.38382813 0.51132812 0 0 Z " fill="#4B6F32" transform="translate(799,260)"/>
<path d="M0 0 C0.66 0.33 1.32 0.66 2 1 C-1.65271061 6.47906592 -6.24231195 8.81336167 -12.375 10.75 C-16.57960626 11.15043869 -20.78022606 11.07374362 -25 11 C-25.33 10.34 -25.66 9.68 -26 9 C-22.7 9 -19.4 9 -16 9 C-16 8.34 -16 7.68 -16 7 C-15.43152344 6.91363281 -14.86304688 6.82726562 -14.27734375 6.73828125 C-8.31815895 5.65388869 -4.70597846 3.80483365 0 0 Z " fill="#3F6928" transform="translate(642,475)"/>
<path d="M0 0 C0.66 0 1.32 0 2 0 C2.33 7.26 2.66 14.52 3 22 C1 21 1 21 0.18359375 18.8203125 C-0.06261719 17.93085938 -0.30882812 17.04140625 -0.5625 16.125 C-0.81128906 15.24070313 -1.06007813 14.35640625 -1.31640625 13.4453125 C-1.54199219 12.63835937 -1.76757812 11.83140625 -2 11 C-2.33 10.01 -2.66 9.02 -3 8 C-2.56901423 4.55211383 -1.96938605 2.95407908 0 0 Z " fill="#86A43C" transform="translate(756,217)"/>
<path d="M0 0 C0.66 0 1.32 0 2 0 C2.21721322 4.21682748 2.41403398 8.43396591 2.59204102 12.65258789 C2.65545437 14.08741651 2.72442591 15.52201073 2.79907227 16.95629883 C2.90543934 19.01867787 2.99175714 21.08107523 3.07421875 23.14453125 C3.13182373 24.38565674 3.18942871 25.62678223 3.2487793 26.90551758 C3 30 3 30 1.49536133 31.9284668 C0.75515747 32.45887573 0.75515747 32.45887573 0 33 C-1.49789402 30.00421196 -1.00082655 27.35592581 -0.87890625 24.0234375 C-0.85529526 23.33819 -0.83168427 22.6529425 -0.80735779 21.94692993 C-0.73072143 19.75607584 -0.64669754 17.56557528 -0.5625 15.375 C-0.50927924 13.89064236 -0.45653884 12.40626741 -0.40429688 10.921875 C-0.2751067 7.28103263 -0.13928926 3.64047156 0 0 Z " fill="#C6E28E" transform="translate(726,221)"/>
<path d="M0 0 C0 4.62 0 9.24 0 14 C-1.32 12.35 -2.64 10.7 -4 9 C-4.7425 8.113125 -5.485 7.22625 -6.25 6.3125 C-8 4 -8 4 -8 2 C-3.61016949 -1.20338983 -3.61016949 -1.20338983 0 0 Z " fill="#436C2D" transform="translate(716,339)"/>
<path d="M0 0 C4.09286937 3.47004142 8.10409397 7.0019506 12.0625 10.625 C14.81334935 13.12386315 17.48092853 15.45294425 20.625 17.4375 C21.40875 17.953125 22.1925 18.46875 23 19 C23 19.66 23 20.32 23 21 C14.62872397 19.37379185 7.2738108 11.2913718 2 5 C0.7421875 2.22265625 0.7421875 2.22265625 0 0 Z " fill="#D1EFB7" transform="translate(677,316)"/>
<path d="M0 0 C0.66 0 1.32 0 2 0 C-0.04507462 8.6347595 -5.95658473 15.84628151 -13 21 C-13.33 20.34 -13.66 19.68 -14 19 C-13.67 18.34 -13.34 17.68 -13 17 C-12.34 17 -11.68 17 -11 17 C-10.938125 16.443125 -10.87625 15.88625 -10.8125 15.3125 C-9.66983308 12.06029415 -7.43298608 10.43298608 -5 8 C-3.62490118 5.89621634 -2.35356707 3.75986901 -1.11328125 1.57421875 C-0.74589844 1.05472656 -0.37851562 0.53523438 0 0 Z " fill="#EBF8C0" transform="translate(810,283)"/>
<path d="M0 0 C0.33 0 0.66 0 1 0 C0.72740991 6.77386385 -0.19053359 11.34724339 -4 17 C-4.66 17 -5.32 17 -6 17 C-6 11.72 -6 6.44 -6 1 C-5.01 2.32 -4.02 3.64 -3 5 C-2.34 5 -1.68 5 -1 5 C-0.67 3.35 -0.34 1.7 0 0 Z " fill="#5B8514" transform="translate(735,230)"/>
<path d="M0 0 C0.5534764 2.07553648 1 3.84365964 1 6 C1.66 6.33 2.32 6.66 3 7 C3 6.01 3 5.02 3 4 C3.66 4 4.32 4 5 4 C3.37621488 8.72373854 0.89006982 12.94181834 -2 17 C-2.33 17 -2.66 17 -3 17 C-3.02712153 15.083412 -3.04645097 13.1667127 -3.0625 11.25 C-3.07410156 10.18265625 -3.08570313 9.1153125 -3.09765625 8.015625 C-3.01454043 5.44900837 -2.89084647 3.39800183 -2 1 C-1.34 0.67 -0.68 0.34 0 0 Z " fill="#648A25" transform="translate(774,251)"/>
<path d="M0 0 C0.33 0 0.66 0 1 0 C1.83919128 4.41557456 2.6703408 8.83262534 3.5 13.25 C3.85771484 15.13138672 3.85771484 15.13138672 4.22265625 17.05078125 C4.44824219 18.25605469 4.67382812 19.46132813 4.90625 20.703125 C5.11572266 21.81333008 5.32519531 22.92353516 5.54101562 24.06738281 C6 27 6 27 6 31 C5.34 31 4.68 31 4 31 C2.15698572 25.33931327 1.28524157 19.68491676 0.46484375 13.79296875 C0.14985464 11.0544571 0.14985464 11.0544571 -1 9 C-1.23333333 2.46666667 -1.23333333 2.46666667 0 0 Z " fill="#E7F4B5" transform="translate(663,240)"/>
<path d="M0 0 C0.66 0.33 1.32 0.66 2 1 C1.19175781 1.58007812 0.38351562 2.16015625 -0.44921875 2.7578125 C-5.92444167 6.7394821 -10.98263477 10.47612281 -15 16 C-15.763125 16.94875 -16.52625 17.8975 -17.3125 18.875 C-17.869375 19.57625 -18.42625 20.2775 -19 21 C-19 19.02 -19 17.04 -19 15 C-18.34 15 -17.68 15 -17 15 C-16.731875 14.360625 -16.46375 13.72125 -16.1875 13.0625 C-15 11 -15 11 -12 10 C-10.79117904 7.99983534 -10.79117904 7.99983534 -10 6 C-9.01 6 -8.02 6 -7 6 C-6.67 5.01 -6.34 4.02 -6 3 C-3.0625 1.25 -3.0625 1.25 0 0 Z " fill="#E5F4B8" transform="translate(788,308)"/>
<path d="M0 0 C0.66 0 1.32 0 2 0 C0.32787809 4.60283019 -1.9751396 8.74926688 -4.375 13 C-4.76171875 13.69867188 -5.1484375 14.39734375 -5.546875 15.1171875 C-7.74998718 19.03547427 -10.06466653 22.56874261 -13 26 C-12.25 19.375 -12.25 19.375 -10 16 C-9.34 16 -8.68 16 -8 16 C-7.88527344 15.43410156 -7.77054688 14.86820313 -7.65234375 14.28515625 C-6.9269873 11.74423695 -5.87029081 9.73098478 -4.5625 7.4375 C-4.13066406 6.67308594 -3.69882812 5.90867188 -3.25390625 5.12109375 C-2.22469183 3.38008618 -1.12186516 1.68279774 0 0 Z " fill="#E9F7BC" transform="translate(753,218)"/>
<path d="M0 0 C0.33 0.66 0.66 1.32 1 2 C0.31164062 2.96099609 0.31164062 2.96099609 -0.390625 3.94140625 C-3.8676834 8.84288983 -7.13011396 13.71940969 -10 19 C-10.99 19 -11.98 19 -13 19 C-13 15.37 -13 11.74 -13 8 C-12.67 8 -12.34 8 -12 8 C-11.67 10.31 -11.34 12.62 -11 15 C-10.54109375 14.25234375 -10.0821875 13.5046875 -9.609375 12.734375 C-8.68898438 11.25710938 -8.68898438 11.25710938 -7.75 9.75 C-7.14671875 8.77546875 -6.5434375 7.8009375 -5.921875 6.796875 C-4.13945558 4.20294755 -2.29898372 2.13622381 0 0 Z " fill="#C6DDA1" transform="translate(783,252)"/>
<path d="M0 0 C0.66 0.33 1.32 0.66 2 1 C-0.05815319 8.38513792 -3.09078757 15.03084397 -8 21 C-8.99 21 -9.98 21 -11 21 C-11 20.34 -11 19.68 -11 19 C-10.34 19 -9.68 19 -9 19 C-9 18.01 -9 17.02 -9 16 C-8.34 16 -7.68 16 -7 16 C-6.67 14.68 -6.34 13.36 -6 12 C-5.34 12 -4.68 12 -4 12 C-3.67 9.69 -3.34 7.38 -3 5 C-2.34 5 -1.68 5 -1 5 C-0.67 3.35 -0.34 1.7 0 0 Z " fill="#5A8227" transform="translate(810,330)"/>
<path d="M0 0 C0.66 0.99 1.32 1.98 2 3 C1.505 3.350625 1.01 3.70125 0.5 4.0625 C-1.74153389 6.95781461 -1.19088797 9.43675791 -1 13 C-1 13.99 -1 14.98 -1 16 C-0.938125 17.175625 -0.87625 18.35125 -0.8125 19.5625 C-0.9053125 21.2640625 -0.9053125 21.2640625 -1 23 C-1.99 23.66 -2.98 24.32 -4 25 C-4.05429278 22.29139335 -4.09381211 19.58389099 -4.125 16.875 C-4.14175781 16.11445313 -4.15851562 15.35390625 -4.17578125 14.5703125 C-4.21546246 9.96729269 -3.75907577 6.33535996 -2 2 C-1.34 2 -0.68 2 0 2 C0 1.34 0 0.68 0 0 Z " fill="#4C782A" transform="translate(767,337)"/>
<path d="M0 0 C1.07230715 3.21692145 0.93694604 4.24022299 0.1875 7.4375 C0.01605469 8.19933594 -0.15539062 8.96117187 -0.33203125 9.74609375 C-0.99992534 11.99974809 -1.8854278 13.93545486 -3 16 C-3.66 16 -4.32 16 -5 16 C-4.938125 16.7425 -4.87625 17.485 -4.8125 18.25 C-5.03094296 21.45383006 -5.90250005 22.64031256 -8 25 C-7.47662586 16.10263961 -4.10066905 7.85802627 0 0 Z " fill="#333A24" transform="translate(725,263)"/>
<path d="M0 0 C0.66 0.99 1.32 1.98 2 3 C0.95125002 5.62187494 0.35068687 6.79371361 -2.125 8.25 C-2.74375 8.4975 -3.3625 8.745 -4 9 C-4 9.66 -4 10.32 -4 11 C-4.99 11.33 -5.98 11.66 -7 12 C-8.69882448 14.49759982 -8.69882448 14.49759982 -10 17 C-11.32 16.67 -12.64 16.34 -14 16 C-13.40832031 15.43152344 -12.81664062 14.86304688 -12.20703125 14.27734375 C-7.5968811 9.77248251 -3.5499655 5.38220575 0 0 Z " fill="#658F2B" transform="translate(799,326)"/>
<path d="M0 0 C0.66 0 1.32 0 2 0 C3.75037897 2.62556845 4.38241433 3.9374871 5.0625 6.875 C5.22621094 7.57367188 5.38992188 8.27234375 5.55859375 8.9921875 C6.07090173 11.32250876 6.56028153 13.65483484 7 16 C7.66 16 8.32 16 9 16 C9.33 15.01 9.66 14.02 10 13 C10 15.97 10 18.94 10 22 C9.34 22 8.68 22 8 22 C6.84850828 19.27309923 5.70367078 16.54371696 4.5625 13.8125 C4.23701172 13.04357422 3.91152344 12.27464844 3.57617188 11.48242188 C1.99156426 7.67609636 0.58515561 4.11257253 0 0 Z " fill="#4F7033" transform="translate(733,286)"/>
<path d="M0 0 C4.875 4.5 4.875 4.5 6 9 C0.72 7.68 -4.56 6.36 -10 5 C-10 4.67 -10 4.34 -10 4 C-6.97265625 3.75585938 -6.97265625 3.75585938 -3.9453125 3.51171875 C-1.60480784 3.12606964 -1.60480784 3.12606964 0 0 Z " fill="#577B40" transform="translate(709,348)"/>
<path d="M0 0 C0.33 0 0.66 0 1 0 C1.33 7.26 1.66 14.52 2 22 C1.34 22 0.68 22 0 22 C-1.20628008 24.33214148 -2.1654738 26.49642139 -3 29 C-3.66 29 -4.32 29 -5 29 C-4.79503906 28.32453125 -4.59007812 27.6490625 -4.37890625 26.953125 C-3.97478516 25.61507813 -3.97478516 25.61507813 -3.5625 24.25 C-3.29566406 23.36828125 -3.02882813 22.4865625 -2.75390625 21.578125 C-2.38072266 20.30195313 -2.38072266 20.30195313 -2 19 C-1.814375 18.3915625 -1.62875 17.783125 -1.4375 17.15625 C-0.77327649 13.88257699 -0.62935756 10.57762783 -0.4375 7.25 C-0.39431641 6.55261719 -0.35113281 5.85523438 -0.30664062 5.13671875 C-0.20110404 3.42468078 -0.1001009 1.71236439 0 0 Z " fill="#D1E8A5" transform="translate(763,258)"/>
<path d="M0 0 C0.33 0.66 0.66 1.32 1 2 C-3.53580902 6.78779841 -3.53580902 6.78779841 -6.1875 8 C-8.77931046 9.42996439 -9.13509633 11.26113837 -10 14 C-11.32 13.67 -12.64 13.34 -14 13 C-9.75139368 7.7957801 -5.63370702 3.67915561 0 0 Z " fill="#779B28" transform="translate(786,311)"/>
<path d="M0 0 C2 1 2 1 3.1875 3.1875 C4.19299878 6.66807271 4.08113804 8.54035826 3 12 C1.35 13.65 -0.3 15.3 -2 17 C-1.34 11.39 -0.68 5.78 0 0 Z " fill="#48692F" transform="translate(703,223)"/>
<path d="M0 0 C0.33 0 0.66 0 1 0 C1.02505615 0.62567871 1.0501123 1.25135742 1.07592773 1.89599609 C1.19175273 4.72254619 1.31453985 7.54875169 1.4375 10.375 C1.47681641 11.35984375 1.51613281 12.3446875 1.55664062 13.359375 C1.59853516 14.30039062 1.64042969 15.24140625 1.68359375 16.2109375 C1.72025146 17.08024902 1.75690918 17.94956055 1.79467773 18.84521484 C1.87401544 21.0483262 1.87401544 21.0483262 3 23 C2.67 23.66 2.34 24.32 2 25 C6.29 25 10.58 25 15 25 C15 25.33 15 25.66 15 26 C10.38 26 5.76 26 1 26 C-0.30475618 23.39048764 -0.11301572 21.47298715 -0.09765625 18.5546875 C-0.09443359 17.47832031 -0.09121094 16.40195312 -0.08789062 15.29296875 C-0.07951172 14.16503906 -0.07113281 13.03710938 -0.0625 11.875 C-0.05798828 10.73933594 -0.05347656 9.60367187 -0.04882812 8.43359375 C-0.03701615 5.62234362 -0.02054507 2.8111977 0 0 Z " fill="#587B41" transform="translate(674,459)"/>
<path d="M0 0 C0.33 0.99 0.66 1.98 1 3 C0.34 3 -0.32 3 -1 3 C-0.67 2.01 -0.34 1.02 0 0 Z M16 -1 C16 -0.01 16 0.98 16 2 C13.94037148 2.67548578 11.87715678 3.34004312 9.8125 4 C8.66394531 4.37125 7.51539063 4.7425 6.33203125 5.125 C3.35679188 5.90630553 1.04716104 6.18363306 -2 6 C-2 5.01 -2 4.02 -2 3 C0.31 3.33 2.62 3.66 5 4 C5.33 3.34 5.66 2.68 6 2 C7.99628664 1.6451046 9.99690671 1.31421071 12 1 C14.28480253 0.02651373 14.28480253 0.02651373 16 -1 Z " fill="#3F6C28" transform="translate(768,363)"/>
<path d="M0 0 C0.66 0.33 1.32 0.66 2 1 C2 3.64 2 6.28 2 9 C0.68 9 -0.64 9 -2 9 C-2 10.65 -2 12.3 -2 14 C-2.66 14 -3.32 14 -4 14 C-4.33 15.32 -4.66 16.64 -5 18 C-6 16 -6 16 -5.29296875 13.57421875 C-4.92816406 12.62160156 -4.56335938 11.66898438 -4.1875 10.6875 C-3.83042969 9.74261719 -3.47335937 8.79773438 -3.10546875 7.82421875 C-2.0826111 5.21105238 -1.04792187 2.60320864 0 0 Z " fill="#849E42" transform="translate(727,193)"/>
<path d="M0 0 C1.79244141 0.01740234 1.79244141 0.01740234 3.62109375 0.03515625 C5.41740234 0.04869141 5.41740234 0.04869141 7.25 0.0625 C8.17683594 0.07410156 9.10367188 0.08570313 10.05859375 0.09765625 C10.05859375 0.42765625 10.05859375 0.75765625 10.05859375 1.09765625 C8.82109375 1.18015625 7.58359375 1.26265625 6.30859375 1.34765625 C3.58766706 1.72328861 2.04931954 2.10288786 -0.37890625 3.47265625 C-2.89175172 7.69423663 -2.77477762 12.265426 -2.94140625 17.09765625 C-3.27140625 17.09765625 -3.60140625 17.09765625 -3.94140625 17.09765625 C-3.96825304 14.45175611 -3.98816982 11.80612529 -4.00390625 9.16015625 C-4.01228516 8.40541016 -4.02066406 7.65066406 -4.02929688 6.87304688 C-4.03793066 4.94771312 -3.99364958 3.02230044 -3.94140625 1.09765625 C-2.94140625 0.09765625 -2.94140625 0.09765625 0 0 Z " fill="#4A7130" transform="translate(677.94140625,421.90234375)"/>
<path d="M0 0 C0.71484375 1.734375 0.71484375 1.734375 1 4 C-0.43359375 6.140625 -0.43359375 6.140625 -2.4375 8.25 C-3.09621094 8.95640625 -3.75492188 9.6628125 -4.43359375 10.390625 C-4.95050781 10.92171875 -5.46742188 11.4528125 -6 12 C-5.01 13.485 -5.01 13.485 -4 15 C-5.65 15.33 -7.3 15.66 -9 16 C-8.47515308 11.44299575 -6.68492697 8.807126 -3.9375 5.1875 C-3.20402344 4.21167969 -2.47054687 3.23585938 -1.71484375 2.23046875 C-1.14894531 1.49441406 -0.58304688 0.75835937 0 0 Z " fill="#537639" transform="translate(772,355)"/>
<path d="M0 0 C0.66 0 1.32 0 2 0 C3.8597711 2.59240819 5.57205423 5.14410847 7 8 C5.68 8.33 4.36 8.66 3 9 C2.67 11.31 2.34 13.62 2 16 C1.67 16 1.34 16 1 16 C-0.12862175 10.63904667 -0.09688221 5.44693314 0 0 Z " fill="#688846" transform="translate(654,281)"/>
<path d="M0 0 C2.45823172 3.68734758 3.01242616 6.69699971 4 11 C4.66 10.34 5.32 9.68 6 9 C6 11.64 6 14.28 6 17 C1.63271583 13.23509985 -0.74645804 8.91573255 -1.25 3.125 C-1 1 -1 1 0 0 Z " fill="#547F23" transform="translate(719,231)"/>
<path d="M0 0 C0.99 0 1.98 0 3 0 C3.33 0.99 3.66 1.98 4 3 C4.66 2.34 5.32 1.68 6 1 C5.88541307 2.43836751 5.75790884 3.87570966 5.625 5.3125 C5.55539062 6.11300781 5.48578125 6.91351563 5.4140625 7.73828125 C5 10 5 10 3 13 C2.49487756 11.39743892 1.99608373 9.79288208 1.5 8.1875 C1.2215625 7.29417969 0.943125 6.40085938 0.65625 5.48046875 C0 3 0 3 0 0 Z " fill="#70961D" transform="translate(690,233)"/>
<path d="M0 0 C1.79244141 0.01740234 1.79244141 0.01740234 3.62109375 0.03515625 C5.41740234 0.04869141 5.41740234 0.04869141 7.25 0.0625 C8.17683594 0.07410156 9.10367188 0.08570313 10.05859375 0.09765625 C10.05859375 0.42765625 10.05859375 0.75765625 10.05859375 1.09765625 C8.41890625 1.31421875 8.41890625 1.31421875 6.74609375 1.53515625 C3.12736388 1.98053729 3.12736388 1.98053729 0.05859375 3.09765625 C-0.96422143 5.19485497 -0.96422143 5.19485497 -1.62890625 7.66015625 C-1.88027344 8.48644531 -2.13164063 9.31273437 -2.390625 10.1640625 C-2.57238281 10.80214844 -2.75414062 11.44023437 -2.94140625 12.09765625 C-3.27140625 12.09765625 -3.60140625 12.09765625 -3.94140625 12.09765625 C-3.96827904 10.28523573 -3.9877434 8.47270392 -4.00390625 6.66015625 C-4.01550781 5.65082031 -4.02710938 4.64148438 -4.0390625 3.6015625 C-3.89749299 -0.02827964 -3.67773118 0.12210263 0 0 Z " fill="#406B26" transform="translate(577.94140625,399.90234375)"/>
<path d="M0 0 C0.33 1.32 0.66 2.64 1 4 C1.99 4 2.98 4 4 4 C4.33 3.34 4.66 2.68 5 2 C5.66 2 6.32 2 7 2 C5.7508258 5.45925163 4.32472205 8.14693203 2 11 C2 9.35 2 7.7 2 6 C0.02 7.32 -1.96 8.64 -4 10 C-3.43454163 6.04179141 -2.19097652 3.3340947 0 0 Z " fill="#E6F5C3" transform="translate(733,242)"/>
<path d="M0 0 C0.99 0.33 1.98 0.66 3 1 C5.48187336 7.34097124 4.63658982 15.90288605 2 22 C1.34 22 0.68 22 0 22 C0.165 21.2575 0.33 20.515 0.5 19.75 C1.35800377 13.31497175 1.89503862 6.28671542 0 0 Z " fill="#DDF0AC" transform="translate(694,223)"/>
<path d="M0 0 C0 3 0 3 -1.96875 5.26171875 C-2.8040625 6.06222656 -3.639375 6.86273438 -4.5 7.6875 C-5.3353125 8.49574219 -6.170625 9.30398438 -7.03125 10.13671875 C-8.00578125 11.05904297 -8.00578125 11.05904297 -9 12 C-9.99 11.34 -10.98 10.68 -12 10 C-10.75645114 8.70212134 -9.5048736 7.41193241 -8.25 6.125 C-7.55390625 5.40570313 -6.8578125 4.68640625 -6.140625 3.9453125 C-4.14877783 2.13520321 -2.4572342 1.05151914 0 0 Z " fill="#E1F7C2" transform="translate(789,336)"/>
<path d="M0 0 C0.66 0 1.32 0 2 0 C3.625 2 3.625 2 5 4 C5.66 3.67 6.32 3.34 7 3 C10.125 9.625 10.125 9.625 9 13 C4.99139058 9.32544136 2.50976168 5.83361508 0 1 C0 0.67 0 0.34 0 0 Z " fill="#658D25" transform="translate(681,234)"/>
<path d="M0 0 C1.32 0.66 2.64 1.32 4 2 C4 2.66 4 3.32 4 4 C9.94 4.99 9.94 4.99 16 6 C16 6.33 16 6.66 16 7 C13.91781638 7.10832169 11.83400871 7.18573541 9.75 7.25 C8.00976562 7.31960938 8.00976562 7.31960938 6.234375 7.390625 C2.42333987 6.93035506 1.34488245 5.94851556 -1 3 C-0.67 2.01 -0.34 1.02 0 0 Z " fill="#597D3E" transform="translate(571,478)"/>
<path d="M0 0 C0.433125 0.9590625 0.433125 0.9590625 0.875 1.9375 C1.82823451 4.15206079 1.82823451 4.15206079 4 5 C3.34 8.3 2.68 11.6 2 15 C-0.91250873 12.08749127 -1.91193067 10.07884928 -2.25 5.9375 C-2 3 -2 3 0 0 Z " fill="#709D14" transform="translate(750,250)"/>
<path d="M0 0 C0.75 1.625 0.75 1.625 1 4 C-1.07474721 7.76528198 -3.17763143 10.9038624 -7 13 C-7.99 12.67 -8.98 12.34 -10 12 C-9.44570313 11.38511719 -8.89140625 10.77023437 -8.3203125 10.13671875 C-7.59585938 9.32847656 -6.87140625 8.52023437 -6.125 7.6875 C-5.40570312 6.88699219 -4.68640625 6.08648437 -3.9453125 5.26171875 C-1.88394498 2.95810917 -1.88394498 2.95810917 0 0 Z " fill="#E3F3C6" transform="translate(806,344)"/>
<path d="M0 0 C0.78375 0.495 1.5675 0.99 2.375 1.5 C4.78552327 3.16537965 4.78552327 3.16537965 7 3 C7.33 3.66 7.66 4.32 8 5 C9.64363134 5.72159424 11.31050386 6.39351421 13 7 C12.67 7.66 12.34 8.32 12 9 C6.52067211 7.45454854 1.88570819 4.84456788 -3 2 C-2.01 1.34 -1.02 0.68 0 0 Z " fill="#E1F3C4" transform="translate(672,294)"/>
<path d="M0 0 C2.21447392 2.21447392 2.92637276 3.76702078 3.11352539 6.90112305 C3.10567017 7.94586792 3.10567017 7.94586792 3.09765625 9.01171875 C3.09282227 10.14770508 3.09282227 10.14770508 3.08789062 11.30664062 C3.07951172 12.09232422 3.07113281 12.87800781 3.0625 13.6875 C3.05798828 14.48478516 3.05347656 15.28207031 3.04882812 16.10351562 C3.0370585 18.06904257 3.01912348 20.03453085 3 22 C2.67 22 2.34 22 2 22 C1.7834375 20.39125 1.7834375 20.39125 1.5625 18.75 C1.12410151 15.28684873 1.12410151 15.28684873 0.46875 13.125 C-0.11956578 10.45796848 -0.09498074 7.97838181 -0.0625 5.25 C-0.05347656 4.26515625 -0.04445313 3.2803125 -0.03515625 2.265625 C-0.02355469 1.51796875 -0.01195312 0.7703125 0 0 Z " fill="#3E6818" transform="translate(704,284)"/>
<path d="M0 0 C1.5 1.375 1.5 1.375 3 3 C3 3.66 3 4.32 3 5 C3.928125 5.0928125 3.928125 5.0928125 4.875 5.1875 C7 6 7 6 8.25 8.5625 C8.4975 9.366875 8.745 10.17125 9 11 C9.66 11 10.32 11 11 11 C10.67 11.66 10.34 12.32 10 13 C5.3539903 10.19078484 2.13783566 7.46903867 -1 3 C-0.67 2.01 -0.34 1.02 0 0 Z " fill="#6A8F2D" transform="translate(676,285)"/>
<path d="M0 0 C2.25473176 3.38209765 2.52740931 5.50705432 3.0625 9.5 C3.51667276 12.83310259 3.93568845 15.80706535 5 19 C3.35 19 1.7 19 0 19 C0 12.73 0 6.46 0 0 Z " fill="#AED095" transform="translate(709,256)"/>
<path d="M0 0 C0.66 0 1.32 0 2 0 C1.79503906 0.66644531 1.59007812 1.33289063 1.37890625 2.01953125 C-0.57215385 8.69421053 -1.61078128 15.06116975 -2 22 C-2.33 22 -2.66 22 -3 22 C-4.10496095 13.44856307 -4.85853514 7.36141688 0 0 Z " fill="#E1F1AD" transform="translate(719,209)"/>
<path d="M0 0 C-0.33 0.99 -0.66 1.98 -1 3 C-1.845625 2.95875 -2.69125 2.9175 -3.5625 2.875 C-7.31283478 3.01137581 -10.40926918 3.96421226 -14 5 C-14.66 4.67 -15.32 4.34 -16 4 C-10.45834744 0.22695996 -6.65545792 -0.54330269 0 0 Z " fill="#DEF1C6" transform="translate(711,436)"/>
<path d="M0 0 C1.32 0.33 2.64 0.66 4 1 C0.37 4.63 -3.26 8.26 -7 12 C-7 8.79604584 -6.25664978 6.90600261 -5 4 C-3.68 4 -2.36 4 -1 4 C-0.67 2.68 -0.34 1.36 0 0 Z " fill="#537F2C" transform="translate(775,344)"/>
<path d="M0 0 C2.63822024 3.10378852 3.70365731 5.81462924 4.6875 9.75 C4.93886719 10.73484375 5.19023438 11.7196875 5.44921875 12.734375 C5.72185547 13.85585937 5.72185547 13.85585937 6 15 C4.35 15.33 2.7 15.66 1 16 C1.18433594 15.4225 1.36867188 14.845 1.55859375 14.25 C2.04907326 11.74985665 1.78505871 10.41797423 1.0625 8 C0.18728295 5.03237663 0 3.23307152 0 0 Z " fill="#C5DD94" transform="translate(688,232)"/>
<path d="M0 0 C0.33 0 0.66 0 1 0 C1 6.27 1 12.54 1 19 C0.01 18.67 -0.98 18.34 -2 18 C-2.3690205 5.33029613 -2.3690205 5.33029613 0 0 Z " fill="#7BA122" transform="translate(682,215)"/>
<path d="M0 0 C2.9156164 3.54039134 5.50127818 7.1626772 8 11 C7.34 11.66 6.68 12.32 6 13 C5.01 12.67 4.02 12.34 3 12 C3.66 12 4.32 12 5 12 C4.55527344 11.38511719 4.11054687 10.77023437 3.65234375 10.13671875 C3.08644531 9.32847656 2.52054688 8.52023437 1.9375 7.6875 C1.36902344 6.88699219 0.80054688 6.08648437 0.21484375 5.26171875 C-0.18605469 4.51535156 -0.58695313 3.76898438 -1 3 C-0.67 2.01 -0.34 1.02 0 0 Z " fill="#C3E1AB" transform="translate(698,293)"/>
<path d="M0 0 C0.33 0.99 0.66 1.98 1 3 C0.67 3.66 0.34 4.32 0 5 C0.99 5 1.98 5 3 5 C3 5.66 3 6.32 3 7 C-1.455 8.485 -1.455 8.485 -6 10 C-4.6302836 6.00499382 -2.74277578 3.19990508 0 0 Z " fill="#6A8B3A" transform="translate(779,260)"/>
<path d="M0 0 C0.33 0 0.66 0 1 0 C1.33 2.64 1.66 5.28 2 8 C2.99 7.01 3.98 6.02 5 5 C5.33 5.99 5.66 6.98 6 8 C4.1875 11.1875 4.1875 11.1875 2 14 C1.34 14 0.68 14 0 14 C0 9.38 0 4.76 0 0 Z " fill="#B3CE9A" transform="translate(762,353)"/>
<path d="M0 0 C4 4 8 8 12 12 C11.01 12.66 10.02 13.32 9 14 C7.67925885 12.42353449 6.36868776 10.83854469 5.0625 9.25 C4.33160156 8.36828125 3.60070312 7.4865625 2.84765625 6.578125 C1.16962815 4.23669045 0.41264834 2.80338873 0 0 Z " fill="#CBE97F" transform="translate(678,269)"/>
<path d="M0 0 C0.33 0 0.66 0 1 0 C1.2134222 5.33555495 1.34551123 10.06208162 -1 15 C-1.99 15.33 -2.98 15.66 -4 16 C-2.68 10.72 -1.36 5.44 0 0 Z " fill="#DFF1AF" transform="translate(815,319)"/>
<path d="M0 0 C3.41000702 6.13801263 3.11962017 12.15506777 3 19 C0.85563709 15.40796592 0.37928617 11.92489593 -0.1875 7.8125 C-0.36667969 6.56082031 -0.54585937 5.30914062 -0.73046875 4.01953125 C-0.81941406 3.02308594 -0.90835938 2.02664062 -1 1 C-0.67 0.67 -0.34 0.34 0 0 Z " fill="#85A82B" transform="translate(666,248)"/>
<path d="M0 0 C0.86625 0.3403125 0.86625 0.3403125 1.75 0.6875 C-1.69615385 5.4875 -1.69615385 5.4875 -4.5 6.5 C-5.36625 6.5928125 -5.36625 6.5928125 -6.25 6.6875 C-6.25 2.6875 -6.25 2.6875 -4.5 0.875 C-2.25 -0.3125 -2.25 -0.3125 0 0 Z " fill="#262E1A" transform="translate(868.25,422.3125)"/>
<path d="M0 0 C2.38564077 0.57584432 4.66682784 1.22227595 7 2 C6.67 2.99 6.34 3.98 6 5 C5.67 4.67 5.34 4.34 5 4 C2.30345146 3.92680379 -0.36691458 3.90757463 -3.0625 3.9375 C-4.20041992 3.94426758 -4.20041992 3.94426758 -5.36132812 3.95117188 C-7.24091871 3.9629932 -9.12046899 3.98092922 -11 4 C-11.33 4.66 -11.66 5.32 -12 6 C-12 5.01 -12 4.02 -12 3 C-9.47524538 1.73762269 -7.68799534 1.90143596 -4.875 1.9375 C-3.96492187 1.94652344 -3.05484375 1.95554687 -2.1171875 1.96484375 C-1.41851563 1.97644531 -0.71984375 1.98804688 0 2 C0 1.34 0 0.68 0 0 Z " fill="#E6F5CF" transform="translate(655,419)"/>
<path d="M0 0 C-0.33 2.31 -0.66 4.62 -1 7 C-2.65 6.67 -4.3 6.34 -6 6 C-6.33 5.01 -6.66 4.02 -7 3 C-2.25 0 -2.25 0 0 0 Z " fill="#376A1E" transform="translate(715,338)"/>
<path d="M0 0 C3.63559661 3.43361902 6.36113346 6.7973607 9 11 C7.68 10.67 6.36 10.34 5 10 C4.01 11.485 4.01 11.485 3 13 C2.92652344 12.04287109 2.92652344 12.04287109 2.8515625 11.06640625 C2.77679687 10.24011719 2.70203125 9.41382813 2.625 8.5625 C2.55539062 7.73878906 2.48578125 6.91507812 2.4140625 6.06640625 C2.27742187 5.38449219 2.14078125 4.70257813 2 4 C1.34 3.67 0.68 3.34 0 3 C0 2.01 0 1.02 0 0 Z " fill="#5C8526" transform="translate(686,282)"/>
<path d="M0 0 C2.5 1.75 2.5 1.75 5 4 C5 5.32 5 6.64 5 8 C4.34 8 3.68 8 3 8 C2.34 8.66 1.68 9.32 1 10 C-0.1577506 6.52674819 -0.06866652 3.63932552 0 0 Z " fill="#718E32" transform="translate(664,239)"/>
<path d="M0 0 C1.32 0.33 2.64 0.66 4 1 C1.03 3.97 -1.94 6.94 -5 10 C-5.33 9.01 -5.66 8.02 -6 7 C-4.1875 4.3125 -4.1875 4.3125 -2 2 C-1.34 2 -0.68 2 0 2 C0 1.34 0 0.68 0 0 Z " fill="#638D29" transform="translate(785,334)"/>
<path d="M0 0 C0.33 0 0.66 0 1 0 C1.24867947 2.60364409 1.47457902 5.20589894 1.6875 7.8125 C1.79674805 8.91948242 1.79674805 8.91948242 1.90820312 10.04882812 C2.07421875 12.20703125 2.07421875 12.20703125 2 16 C1.01 16.99 0.02 17.98 -1 19 C-0.67 12.73 -0.34 6.46 0 0 Z " fill="#5D842D" transform="translate(749,265)"/>
<path d="M0 0 C1.9375 0.375 1.9375 0.375 4 1 C4.33 1.66 4.66 2.32 5 3 C5.99 2.67 6.98 2.34 8 2 C7.4375 3.875 7.4375 3.875 6 6 C2.375 7.25 2.375 7.25 -1 8 C-0.649375 7.05125 -0.29875 6.1025 0.0625 5.125 C1.35026777 2.12939828 1.35026777 2.12939828 0 0 Z " fill="#79A31D" transform="translate(782,250)"/>
<path d="M0 0 C0.5775 0.639375 1.155 1.27875 1.75 1.9375 C3.98062401 3.98223868 5.07436391 4.58205199 8 5 C8 6.65 8 8.3 8 10 C6.68103535 9.07161713 5.37001311 8.13194268 4.0625 7.1875 C3.33160156 6.66542969 2.60070312 6.14335937 1.84765625 5.60546875 C0 4 0 4 -1 1 C-0.67 0.67 -0.34 0.34 0 0 Z " fill="#5C8838" transform="translate(681,317)"/>
<path d="M0 0 C0.66 0.33 1.32 0.66 2 1 C-0.31 3.64 -2.62 6.28 -5 9 C-5.99 8.34 -6.98 7.68 -8 7 C-5.36 4.69 -2.72 2.38 0 0 Z " fill="#436F28" transform="translate(771,283)"/>
<path d="M0 0 C1.90747183 2.86120775 3.00353706 5.35254993 4.1875 8.5625 C4.55230469 9.53316406 4.91710937 10.50382812 5.29296875 11.50390625 C6 14 6 14 5 16 C3 15 3 15 2.1484375 12.890625 C1.89320313 12.01921875 1.63796875 11.1478125 1.375 10.25 C0.98441406 8.95835937 0.98441406 8.95835937 0.5859375 7.640625 C0.00060132 5.00270994 -0.10651736 2.69198424 0 0 Z " fill="#E0F1B0" transform="translate(669,272)"/>
<path d="M0 0 C0.66 0 1.32 0 2 0 C2.2765289 2.07997826 2.52030075 4.1643308 2.75 6.25 C2.88921875 7.41015625 3.0284375 8.5703125 3.171875 9.765625 C3 13 3 13 -1 17 C-0.67 11.39 -0.34 5.78 0 0 Z " fill="#BFD3A7" transform="translate(799,259)"/>
<path d="M0 0 C4.29951803 1.59241408 6.39671947 4.35540725 9 8 C8.67 8.99 8.34 9.98 8 11 C6.79557292 9.47005208 5.59114583 7.94010417 4.38671875 6.41015625 C2.94316909 4.72844923 2.94316909 4.72844923 0 4 C0 2.68 0 1.36 0 0 Z " fill="#85AF22" transform="translate(676,265)"/>
<path d="M0 0 C0.75 1.6875 0.75 1.6875 1 4 C-0.625 6.75 -0.625 6.75 -3 9 C-5.75 9.3125 -5.75 9.3125 -8 9 C-6.8553125 7.88625 -6.8553125 7.88625 -5.6875 6.75 C-3.5606298 4.5736677 -1.7440044 2.47832204 0 0 Z " fill="#E3F4BD" transform="translate(788,259)"/>
<path d="M0 0 C4.62 0 9.24 0 14 0 C14 0.33 14 0.66 14 1 C13.24074219 1.03738281 12.48148438 1.07476562 11.69921875 1.11328125 C10.70535156 1.17902344 9.71148438 1.24476563 8.6875 1.3125 C7.70136719 1.37050781 6.71523438 1.42851562 5.69921875 1.48828125 C2.75615543 2.04622813 1.81817001 2.68540132 0 5 C-0.66 4.67 -1.32 4.34 -2 4 C-1.34 2.68 -0.68 1.36 0 0 Z " fill="#41692B" transform="translate(515,400)"/>
<path d="M0 0 C1.8133922 3.20010388 2.52213974 6.13283843 3.125 9.75 C3.29257812 10.73484375 3.46015625 11.7196875 3.6328125 12.734375 C3.81457031 13.85585938 3.81457031 13.85585938 4 15 C3.01 14.34 2.02 13.68 1 13 C0.8125 9.875 0.8125 9.875 1 7 C0.34 7 -0.32 7 -1 7 C-0.67 4.69 -0.34 2.38 0 0 Z " fill="#D2E7B5" transform="translate(655,297)"/>
<path d="M0 0 C0.33 0 0.66 0 1 0 C2.44449671 8.96284102 2.44449671 8.96284102 0.6875 13.0625 C-1 15 -1 15 -3 16 C-2.01 10.72 -1.02 5.44 0 0 Z " fill="#DAECA3" transform="translate(793,241)"/>
<path d="M0 0 C4.95 0 9.9 0 15 0 C15.66 1.32 16.32 2.64 17 4 C16.01 4 15.02 4 14 4 C13.34 3.34 12.68 2.68 12 2 C9.10776497 1.53603307 9.10776497 1.53603307 5.875 1.375 C4.23144531 1.26285156 4.23144531 1.26285156 2.5546875 1.1484375 C1.71164062 1.09945313 0.86859375 1.05046875 0 1 C0 0.67 0 0.34 0 0 Z " fill="#C5DCAE" transform="translate(517,399)"/>
<path d="M0 0 C5.28089024 -0.30466674 6.577168 -0.317124 11 3 C7.04 3 3.08 3 -1 3 C-0.67 2.01 -0.34 1.02 0 0 Z " fill="#DAEBC5" transform="translate(576,397)"/>
<path d="M0 0 C0.66 0 1.32 0 2 0 C2.33 0.99 2.66 1.98 3 3 C3.66 3.33 4.32 3.66 5 4 C5.625 7.0625 5.625 7.0625 6 10 C5.01 10.495 5.01 10.495 4 11 C3.32880451 9.5437455 2.66318193 8.08492133 2 6.625 C1.62875 5.81289063 1.2575 5.00078125 0.875 4.1640625 C0 2 0 2 0 0 Z " fill="#638340" transform="translate(660,314)"/>
<path d="M0 0 C0.66 0 1.32 0 2 0 C1.71812064 1.79323253 1.4241719 3.58457126 1.125 5.375 C0.96257813 6.37273437 0.80015625 7.37046875 0.6328125 8.3984375 C0 11 0 11 -2 13 C-2.19294408 8.17639811 -1.75747614 4.50353262 0 0 Z " fill="#E8F6C3" transform="translate(771,249)"/>
<path d="M0 0 C0.33 0 0.66 0 1 0 C1.49230769 7.26153846 1.49230769 7.26153846 -1 11 C-1.66 11.66 -2.32 12.32 -3 13 C-2.52060632 8.28596212 -2.03165952 4.33420699 0 0 Z " fill="#88AD32" transform="translate(720,211)"/>
<path d="M0 0 C-0.1875 2.3125 -0.1875 2.3125 -1 5 C-3.5625 6.8125 -3.5625 6.8125 -6 8 C-5.40138258 5.64828869 -4.73075648 3.3140622 -4 1 C-2 0 -2 0 0 0 Z " fill="#D9EFC1" transform="translate(643,463)"/>
<path d="M0 0 C3 3 3 3 3.375 6.0625 C3.25125 7.031875 3.1275 8.00125 3 9 C2.01 9.66 1.02 10.32 0 11 C0 7.37 0 3.74 0 0 Z " fill="#3D6A24" transform="translate(763,351)"/>
<path d="M0 0 C0.66 0.66 1.32 1.32 2 2 C-0.31 4.64 -2.62 7.28 -5 10 C-5.33 9.01 -5.66 8.02 -6 7 C-5.67 6.34 -5.34 5.68 -5 5 C-4.34 5 -3.68 5 -3 5 C-3 4.34 -3 3.68 -3 3 C-2.01 3 -1.02 3 0 3 C0 2.01 0 1.02 0 0 Z " fill="#719B22" transform="translate(796,323)"/>
<path d="M0 0 C0.66 0.33 1.32 0.66 2 1 C-2.18461538 6.78461538 -2.18461538 6.78461538 -6.3125 7.875 C-7.6428125 7.936875 -7.6428125 7.936875 -9 8 C-6.17493137 5.0702992 -3.21203935 2.49825283 0 0 Z " fill="#80A52F" transform="translate(798,302)"/>
<path d="M0 0 C1.32 0 2.64 0 4 0 C4.33 1.32 4.66 2.64 5 4 C2.625 4.625 2.625 4.625 0 5 C-0.66 4.34 -1.32 3.68 -2 3 C-1.34 2.01 -0.68 1.02 0 0 Z " fill="#407811" transform="translate(691,293)"/>
<path d="M0 0 C0.33 0.66 0.66 1.32 1 2 C0.00390625 3.9453125 0.00390625 3.9453125 -1.4375 6.125 C-1.91058594 6.84945313 -2.38367188 7.57390625 -2.87109375 8.3203125 C-3.24363281 8.87460937 -3.61617187 9.42890625 -4 10 C-4.99 9.34 -5.98 8.68 -7 8 C-4.69 5.36 -2.38 2.72 0 0 Z " fill="#CCEB8A" transform="translate(783,252)"/>
<path d="M0 0 C0.66 0 1.32 0 2 0 C1.74279326 1.58560393 1.46861201 3.16845924 1.1875 4.75 C1.03667969 5.63171875 0.88585937 6.5134375 0.73046875 7.421875 C-0.05414248 10.1910911 -1.14595359 11.8259401 -3 14 C-3 12.02 -3 10.04 -3 8 C-2.34 8 -1.68 8 -1 8 C-0.67 5.36 -0.34 2.72 0 0 Z " fill="#E7F5B9" transform="translate(724,195)"/>
<path d="M0 0 C0.99 0 1.98 0 3 0 C4.6875 2.5 4.6875 2.5 6 5 C4.35 4.67 2.7 4.34 1 4 C1 5.65 1 7.3 1 9 C0.67 9 0.34 9 0 9 C0 6.03 0 3.06 0 0 Z " fill="#DBF1C2" transform="translate(530,431)"/>
<path d="M0 0 C-1.36983503 3.16115776 -1.9890638 3.9927092 -5 6 C-7.1875 5.625 -7.1875 5.625 -9 5 C-7.87926138 4.16094435 -6.75325453 3.32892169 -5.625 2.5 C-4.99851562 2.0359375 -4.37203125 1.571875 -3.7265625 1.09375 C-2 0 -2 0 0 0 Z " fill="#D5ECC2" transform="translate(773,313)"/>
<path d="M0 0 C0.66 0 1.32 0 2 0 C1.48964169 4.3890815 0.47785723 7.33708062 -2 11 C-2.95465783 8.83032311 -3.14401212 7.43671207 -2.3984375 5.17578125 C-1.64129615 3.4315257 -0.82390802 1.71372869 0 0 Z " fill="#548327" transform="translate(759,277)"/>
<path d="M0 0 C1 2 1 2 0.0625 5.125 C-0.288125 6.07375 -0.63875 7.0225 -1 8 C-1.66 7.34 -2.32 6.68 -3 6 C-3.66 6.66 -4.32 7.32 -5 8 C-4.64950425 4.75791433 -4.43778819 3.38472296 -1.9375 1.1875 C-1.298125 0.795625 -0.65875 0.40375 0 0 Z " fill="#E5F5CD" transform="translate(701,236)"/>
<path d="M0 0 C1.485 0.99 1.485 0.99 3 2 C5.27912938 2.45394552 5.27912938 2.45394552 7.6875 2.625 C8.49574219 2.69976562 9.30398438 2.77453125 10.13671875 2.8515625 C10.75160156 2.90054687 11.36648438 2.94953125 12 3 C12 3.33 12 3.66 12 4 C9.03 4.66 6.06 5.32 3 6 C3 5.34 3 4.68 3 4 C2.34 4 1.68 4 1 4 C0.67 2.68 0.34 1.36 0 0 Z " fill="#638B48" transform="translate(621,469)"/>
<path d="M0 0 C2.26562673 2.26562673 2.94462749 3.84160705 3.09765625 7.04296875 C3.06510417 9.02864583 3.03255208 11.01432292 3 13 C2.67 13 2.34 13 2 13 C2 11.02 2 9.04 2 7 C1.34 7 0.68 7 0 7 C-1.125 2.25 -1.125 2.25 0 0 Z " fill="#3A3F28" transform="translate(946,437)"/>
<path d="M0 0 C0.66 0 1.32 0 2 0 C2 2.31 2 4.62 2 7 C0.68 7.33 -0.64 7.66 -2 8 C-1.125 1.125 -1.125 1.125 0 0 Z " fill="#678129" transform="translate(813,282)"/>
<path d="M0 0 C0.66 0 1.32 0 2 0 C0.94124926 3.40312738 -0.00902154 6.01353231 -2 9 C-2.66 9 -3.32 9 -4 9 C-4 7.35 -4 5.7 -4 4 C-2.68 3.67 -1.36 3.34 0 3 C0 2.01 0 1.02 0 0 Z " fill="#5E802D" transform="translate(733,238)"/>
<path d="M0 0 C0.66 0.33 1.32 0.66 2 1 C2 4.96 2 8.92 2 13 C1.67 13 1.34 13 1 13 C0.855625 11.9275 0.71125 10.855 0.5625 9.75 C0.10566824 6.21527402 0.10566824 6.21527402 -0.625 3.6875 C-1 2 -1 2 0 0 Z " fill="#323C27" transform="translate(810,470)"/>
<path d="M0 0 C2.2477975 2.05233685 3.0022242 3.00667261 4 6 C4.66 6.33 5.32 6.66 6 7 C5.67 8.32 5.34 9.64 5 11 C3.96680187 9.7391988 2.94875621 8.46596742 1.9375 7.1875 C1.08478516 6.12595703 1.08478516 6.12595703 0.21484375 5.04296875 C-0.18605469 4.36878906 -0.58695313 3.69460938 -1 3 C-0.67 2.01 -0.34 1.02 0 0 Z " fill="#DFF2C5" transform="translate(563,439)"/>
<path d="M0 0 C0.66 0.33 1.32 0.66 2 1 C1.01 3.97 0.02 6.94 -1 10 C-1.66 9.34 -2.32 8.68 -3 8 C-3 7.01 -3 6.02 -3 5 C-2.34 5 -1.68 5 -1 5 C-0.67 3.35 -0.34 1.7 0 0 Z " fill="#6D941F" transform="translate(810,330)"/>
<path d="M0 0 C1.12894876 0.93274109 2.25300876 1.87140122 3.375 2.8125 C4.00148438 3.33457031 4.62796875 3.85664063 5.2734375 4.39453125 C7 6 7 6 9 9 C6 9 6 9 4.39453125 7.5390625 C3.61142578 6.59160156 3.61142578 6.59160156 2.8125 5.625 C2.28269531 4.99851562 1.75289062 4.37203125 1.20703125 3.7265625 C0 2 0 2 0 0 Z " fill="#BCE59B" transform="translate(677,316)"/>
<path d="M0 0 C0.66 0 1.32 0 2 0 C4.67927341 4.01891012 4.15601248 6.24161923 4 11 C1.54176828 7.31265242 0.98757384 4.30300029 0 0 Z " fill="#4B7629" transform="translate(733,286)"/>
<path d="M0 0 C1.65 0 3.3 0 5 0 C5 2.31 5 4.62 5 7 C3.29115995 5.37660195 1.62553283 3.70680947 0 2 C0 1.34 0 0.68 0 0 Z " fill="#34591D" transform="translate(705,267)"/>
<path d="M0 0 C0.99 0.99 1.98 1.98 3 3 C2.67 3.99 2.34 4.98 2 6 C-0.0625 6.6875 -0.0625 6.6875 -2 7 C-2.33 5.35 -2.66 3.7 -3 2 C-2.01 2.33 -1.02 2.66 0 3 C0 2.01 0 1.02 0 0 Z " fill="#78A01C" transform="translate(669,244)"/>
<path d="M0 0 C3.3 0 6.6 0 10 0 C9.67 1.65 9.34 3.3 9 5 C8.01 4.67 7.02 4.34 6 4 C6 3.01 6 2.02 6 1 C4.02 1 2.04 1 0 1 C0 0.67 0 0.34 0 0 Z " fill="#3E6A25" transform="translate(704,421)"/>
<path d="M0 0 C0.33 0 0.66 0 1 0 C1.05389087 1.95803507 1.09274217 3.91648909 1.125 5.875 C1.14820313 6.96554687 1.17140625 8.05609375 1.1953125 9.1796875 C1 12 1 12 -1 14 C-1.33 12.02 -1.66 10.04 -2 8 C-1.67 8 -1.34 8 -1 8 C-0.67 5.36 -0.34 2.72 0 0 Z " fill="#BBD2A4" transform="translate(716,343)"/>
<path d="M0 0 C1.9375 0.75 1.9375 0.75 4 2 C4.36162029 3.32594105 4.69728039 4.65938457 5 6 C5.99 6.33 6.98 6.66 8 7 C7.34 7.66 6.68 8.32 6 9 C4.99406757 7.8803014 3.9954151 6.7540588 3 5.625 C2.443125 4.99851562 1.88625 4.37203125 1.3125 3.7265625 C0 2 0 2 0 0 Z " fill="#4F7432" transform="translate(668,329)"/>
<path d="M0 0 C0.66 0.99 1.32 1.98 2 3 C0.48601545 6.78496138 -0.0144396 7.0072198 -4 9 C-2.68 6.03 -1.36 3.06 0 0 Z " fill="#699817" transform="translate(799,326)"/>
<path d="M0 0 C1.32 0 2.64 0 4 0 C4 0.66 4 1.32 4 2 C4.99 2.33 5.98 2.66 7 3 C7 3.99 7 4.98 7 6 C4.12549673 4.71142957 2.07476576 3.38598062 0 1 C0 0.67 0 0.34 0 0 Z " fill="#DCEFBD" transform="translate(662,289)"/>
<path d="M0 0 C0.33 0.99 0.66 1.98 1 3 C1.99 3 2.98 3 4 3 C3.67 5.31 3.34 7.62 3 10 C-0.00617269 6.99382731 0.40414684 4.17618402 0 0 Z " fill="#738C37" transform="translate(691,236)"/>
<path d="M0 0 C1.2065625 0.0309375 1.2065625 0.0309375 2.4375 0.0625 C2.1075 1.0525 1.7775 2.0425 1.4375 3.0625 C0.7775 3.0625 0.1175 3.0625 -0.5625 3.0625 C-1.92411311 4.02363866 -3.26105198 5.02134159 -4.5625 6.0625 C-3.48963568 0.08511307 -3.48963568 0.08511307 0 0 Z " fill="#E2EBBD" transform="translate(794.5625,229.9375)"/>
<path d="M0 0 C1.32 0.33 2.64 0.66 4 1 C4 1.66 4 2.32 4 3 C4.66 3 5.32 3 6 3 C6.33 4.98 6.66 6.96 7 9 C4.04070881 6.24479785 1.96318174 3.53372712 0 0 Z " fill="#48702F" transform="translate(540,441)"/>
<path d="M0 0 C0.33 0.66 0.66 1.32 1 2 C0.22265625 3.7265625 0.22265625 3.7265625 -0.9375 5.625 C-1.618125 6.73875 -2.29875 7.8525 -3 9 C-3.99 8.67 -4.98 8.34 -6 8 C-4.02 5.36 -2.04 2.72 0 0 Z " fill="#C0E56B" transform="translate(803,317)"/>
<path d="M0 0 C3.96 1.98 3.96 1.98 8 4 C8 4.33 8 4.66 8 5 C5.125 5.125 5.125 5.125 2 5 C1.34 4.34 0.68 3.68 0 3 C0 2.01 0 1.02 0 0 Z " fill="#608938" transform="translate(668,295)"/>
<path d="M0 0 C1.65 0 3.3 0 5 0 C5.33 1.32 5.66 2.64 6 4 C6.66 4 7.32 4 8 4 C7.67 4.66 7.34 5.32 7 6 C5.83054208 5.19152271 4.66449539 4.37810888 3.5 3.5625 C2.8503125 3.11003906 2.200625 2.65757812 1.53125 2.19140625 C1.0259375 1.79824219 0.520625 1.40507812 0 1 C0 0.67 0 0.34 0 0 Z " fill="#E7F6B0" transform="translate(678,252)"/>
<path d="M0 0 C0.33 0 0.66 0 1 0 C1 2.31 1 4.62 1 7 C-0.65 6.67 -2.3 6.34 -4 6 C-2.69593116 3.98079663 -1.36176581 1.98075027 0 0 Z " fill="#CEEBB3" transform="translate(644,475)"/>
<path d="M0 0 C0.66 0.33 1.32 0.66 2 1 C2 1.66 2 2.32 2 3 C-0.8125 5.1875 -0.8125 5.1875 -4 7 C-4.99 6.67 -5.98 6.34 -7 6 C-6.21625 5.566875 -5.4325 5.13375 -4.625 4.6875 C-1.78301625 3.10779753 -1.78301625 3.10779753 0 0 Z " fill="#CFD4BE" transform="translate(944,475)"/>
<path d="M0 0 C2.4375 0.75 2.4375 0.75 5 2 C5.6875 4.0625 5.6875 4.0625 6 6 C6.66 6.33 7.32 6.66 8 7 C7.01 7 6.02 7 5 7 C3.61328125 5.46875 3.61328125 5.46875 2.3125 3.5 C1.87550781 2.8503125 1.43851563 2.200625 0.98828125 1.53125 C0.49908203 0.77328125 0.49908203 0.77328125 0 0 Z " fill="#689124" transform="translate(690,282)"/>
<path d="M0 0 C1.5625 1.8125 1.5625 1.8125 3 4 C2.67 4.99 2.34 5.98 2 7 C0.62437146 5.71034824 -0.70766393 4.37310707 -2 3 C-2 2.34 -2 1.68 -2 1 C-1.34 0.67 -0.68 0.34 0 0 Z " fill="#65853B" transform="translate(688,240)"/>
<path d="M0 0 C0.99 0 1.98 0 3 0 C3 0.99 3 1.98 3 3 C2.01 3 1.02 3 0 3 C-0.33 3.99 -0.66 4.98 -1 6 C-1.625 4.125 -1.625 4.125 -2 2 C-1.34 1.34 -0.68 0.68 0 0 Z " fill="#3F6F24" transform="translate(775,352)"/>
<path d="M0 0 C1.65 0 3.3 0 5 0 C5.66 1.65 6.32 3.3 7 5 C3.34683329 3.75023244 2.21934164 3.32901247 0 0 Z " fill="#517536" transform="translate(681,343)"/>
<path d="M0 0 C0.33 0 0.66 0 1 0 C1.25 5.625 1.25 5.625 -1 9 C-1.66 9 -2.32 9 -3 9 C-2.01 6.03 -1.02 3.06 0 0 Z " fill="#DDF1B3" transform="translate(810,335)"/>
<path d="M0 0 C0.75 1.6875 0.75 1.6875 1 4 C-0.9375 6.75 -0.9375 6.75 -3 9 C-3 7.35 -3 5.7 -3 4 C-2.34 4 -1.68 4 -1 4 C-0.67 2.68 -0.34 1.36 0 0 Z " fill="#628D24" transform="translate(807,338)"/>
<path d="M0 0 C2.125 0.9375 2.125 0.9375 4 2 C4 2.66 4 3.32 4 4 C1.03 3.505 1.03 3.505 -2 3 C-2 2.34 -2 1.68 -2 1 C-1.34 0.67 -0.68 0.34 0 0 Z " fill="#57803E" transform="translate(699,301)"/>
<path d="M0 0 C0.66 0 1.32 0 2 0 C2.33 2.31 2.66 4.62 3 7 C2.34 7 1.68 7 1 7 C0.67 4.69 0.34 2.38 0 0 Z " fill="#60872C" transform="translate(702,277)"/>
<path d="M0 0 C1.32 0 2.64 0 4 0 C4 0.66 4 1.32 4 2 C4.66 2 5.32 2 6 2 C5.67 3.32 5.34 4.64 5 6 C3.35 4.02 1.7 2.04 0 0 Z " fill="#DFF0A9" transform="translate(692,262)"/>
<path d="M0 0 C0 0.66 0 1.32 0 2 C-1.65 2.33 -3.3 2.66 -5 3 C-5.33 4.32 -5.66 5.64 -6 7 C-6.66 7 -7.32 7 -8 7 C-6.53112033 2.34854772 -6.53112033 2.34854772 -4 0.6875 C-2 0 -2 0 0 0 Z " fill="#EBF9C2" transform="translate(788,236)"/>
</svg>
